<?xml version="1.0" encoding="UTF-8" standalone="no"?>
<!DOCTYPE svg PUBLIC "-//W3C//DTD SVG 1.1//EN"
 "http://www.w3.org/Graphics/SVG/1.1/DTD/svg11.dtd">
<!-- Generated by graphviz version 14.1.5 (0)
 -->
<!-- Title: RedoGameModel Pages: 1 -->
<svg width="4023pt" height="826pt"
 viewBox="0.00 0.00 4023.00 826.00" xmlns="http://www.w3.org/2000/svg" xmlns:xlink="http://www.w3.org/1999/xlink">
<g id="graph0" class="graph" transform="scale(1 1) rotate(0) translate(4 822.5)">
<title>RedoGameModel</title>
<polygon fill="white" stroke="none" points="-4,4 -4,-822.5 4018.62,-822.5 4018.62,4 -4,4"/>
<!-- Goal -->
<g id="node1" class="node">
<title>Goal</title>
<ellipse fill="none" stroke="black" stroke-width="2" cx="2029.75" cy="-760.05" rx="212.84" ry="54.45"/>
<ellipse fill="none" stroke="black" stroke-width="2" cx="2029.75" cy="-760.05" rx="216.84" ry="58.45"/>
<text xml:space="preserve" text-anchor="middle" x="2029.75" y="-781.25" font-family="Times,serif" font-size="14.00">Redo game model to support</text>
<text xml:space="preserve" text-anchor="middle" x="2029.75" y="-764" font-family="Times,serif" font-size="14.00">1) more simultaneous games</text>
<text xml:space="preserve" text-anchor="middle" x="2029.75" y="-746.75" font-family="Times,serif" font-size="14.00">2) less downtime between deploys</text>
<text xml:space="preserve" text-anchor="middle" x="2029.75" y="-729.5" font-family="Times,serif" font-size="14.00">3) make DB faster to back up and query</text>
</g>
<!-- MoreSimultaneousGames -->
<g id="node22" class="node">
<title>MoreSimultaneousGames</title>
<polygon fill="none" stroke="black" points="2410.25,-653.55 2019.25,-653.55 2019.25,-617.55 2410.25,-617.55 2410.25,-653.55"/>
<text xml:space="preserve" text-anchor="middle" x="2214.75" y="-630.88" font-family="Times,serif" font-size="14.00">Allow for more simultaneous games than cache limit</text>
</g>
<!-- Goal&#45;&gt;MoreSimultaneousGames -->
<g id="edge1" class="edge">
<title>Goal&#45;&gt;MoreSimultaneousGames</title>
<path fill="none" stroke="black" d="M2110.62,-705.5C2134.58,-689.64 2159.59,-673.08 2179.09,-660.16"/>
<polygon fill="black" stroke="black" points="2180.81,-663.22 2187.22,-654.78 2176.95,-657.39 2180.81,-663.22"/>
</g>
<!-- LessDowntimeBetweenDeploys -->
<g id="node23" class="node">
<title>LessDowntimeBetweenDeploys</title>
<polygon fill="none" stroke="black" points="2001.5,-653.55 1690,-653.55 1690,-617.55 2001.5,-617.55 2001.5,-653.55"/>
<text xml:space="preserve" text-anchor="middle" x="1845.75" y="-630.88" font-family="Times,serif" font-size="14.00">Allow for less downtime between deploys</text>
</g>
<!-- Goal&#45;&gt;LessDowntimeBetweenDeploys -->
<g id="edge2" class="edge">
<title>Goal&#45;&gt;LessDowntimeBetweenDeploys</title>
<path fill="none" stroke="black" d="M1949.04,-705.32C1925.36,-689.56 1900.67,-673.11 1881.36,-660.26"/>
<polygon fill="black" stroke="black" points="1883.32,-657.36 1873.06,-654.73 1879.44,-663.19 1883.32,-657.36"/>
</g>
<!-- MakeDBFaster -->
<g id="node24" class="node">
<title>MakeDBFaster</title>
<polygon fill="none" stroke="black" points="1597.25,-653.55 1314.25,-653.55 1314.25,-617.55 1597.25,-617.55 1597.25,-653.55"/>
<text xml:space="preserve" text-anchor="middle" x="1455.75" y="-630.88" font-family="Times,serif" font-size="14.00">Make DB faster to back up and query</text>
</g>
<!-- Goal&#45;&gt;MakeDBFaster -->
<g id="edge3" class="edge">
<title>Goal&#45;&gt;MakeDBFaster</title>
<path fill="none" stroke="black" d="M1861.02,-723.04C1758.94,-701.26 1632.66,-674.31 1548.45,-656.34"/>
<polygon fill="black" stroke="black" points="1549.36,-652.95 1538.85,-654.29 1547.9,-659.8 1549.36,-652.95"/>
</g>
<!-- DeprecateGameDocument -->
<g id="node36" class="node">
<title>DeprecateGameDocument</title>
<ellipse fill="none" stroke="black" cx="2929.75" cy="-635.55" rx="189.5" ry="30.05"/>
<text xml:space="preserve" text-anchor="middle" x="2929.75" y="-639.5" font-family="Times,serif" font-size="14.00">Deprecate GameDocument entirely</text>
<text xml:space="preserve" text-anchor="middle" x="2929.75" y="-622.25" font-family="Times,serif" font-size="14.00">(storage + runtime type)</text>
</g>
<!-- Goal&#45;&gt;DeprecateGameDocument -->
<g id="edge4" class="edge">
<title>Goal&#45;&gt;DeprecateGameDocument</title>
<path fill="none" stroke="black" d="M2179.8,-717.51C2205.02,-711.51 2231.02,-705.91 2255.75,-701.6 2418.24,-673.28 2605.07,-656.46 2740.76,-647.05"/>
<polygon fill="black" stroke="black" points="2740.83,-650.55 2750.57,-646.38 2740.35,-643.57 2740.83,-650.55"/>
</g>
<!-- DBGet -->
<g id="node2" class="node">
<title>DBGet</title>
<polygon fill="none" stroke="gray" stroke-dasharray="5,2" points="1618.38,-383.38 1387.12,-383.38 1387.12,-347.38 1618.38,-347.38 1618.38,-383.38"/>
<text xml:space="preserve" text-anchor="middle" x="1502.75" y="-360.7" font-family="Times,serif" font-size="14.00" fill="gray">Rewrite DB Get to use sqlc ✅</text>
</g>
<!-- AddOtherTables -->
<g id="node3" class="node">
<title>AddOtherTables</title>
<polygon fill="none" stroke="gray" stroke-dasharray="5,2" points="289,-36 10.5,-36 10.5,0 289,0 289,-36"/>
<text xml:space="preserve" text-anchor="middle" x="149.75" y="-13.32" font-family="Times,serif" font-size="14.00" fill="gray">Add many2many and turns tables ✅</text>
</g>
<!-- SQLCDBStore -->
<g id="node4" class="node">
<title>SQLCDBStore</title>
<polygon fill="none" stroke="gray" stroke-dasharray="5,2" points="1624,-479.12 1381.5,-479.12 1381.5,-443.12 1624,-443.12 1624,-479.12"/>
<text xml:space="preserve" text-anchor="middle" x="1502.75" y="-456.45" font-family="Times,serif" font-size="14.00" fill="gray">Rewrite DB store to use sqlc ✅</text>
</g>
<!-- SQLCDBStore&#45;&gt;DBGet -->
<g id="edge20" class="edge">
<title>SQLCDBStore&#45;&gt;DBGet</title>
<path fill="none" stroke="black" d="M1502.75,-442.93C1502.75,-429.53 1502.75,-410.65 1502.75,-394.98"/>
<polygon fill="black" stroke="black" points="1506.25,-395.29 1502.75,-385.29 1499.25,-395.29 1506.25,-395.29"/>
</g>
<!-- SQLCOtherFuncs -->
<g id="node5" class="node">
<title>SQLCOtherFuncs</title>
<polygon fill="none" stroke="gray" stroke-dasharray="5,2" points="2041.25,-383.38 1794.25,-383.38 1794.25,-347.38 2041.25,-347.38 2041.25,-383.38"/>
<text xml:space="preserve" text-anchor="middle" x="1917.75" y="-360.7" font-family="Times,serif" font-size="14.00" fill="gray">Rewrite all others to use sqlc ✅</text>
</g>
<!-- SQLCDBStore&#45;&gt;SQLCOtherFuncs -->
<g id="edge21" class="edge">
<title>SQLCDBStore&#45;&gt;SQLCOtherFuncs</title>
<path fill="none" stroke="black" d="M1579.84,-442.71C1650.51,-426.74 1755.14,-403.11 1829.22,-386.38"/>
<polygon fill="black" stroke="black" points="1829.91,-389.81 1838.9,-384.19 1828.37,-382.98 1829.91,-389.81"/>
</g>
<!-- ConsolidateRequestColumns -->
<g id="node6" class="node">
<title>ConsolidateRequestColumns</title>
<polygon fill="none" stroke="gray" stroke-dasharray="5,2" points="1363.12,-479.12 1118.38,-479.12 1118.38,-443.12 1363.12,-443.12 1363.12,-479.12"/>
<text xml:space="preserve" text-anchor="middle" x="1240.75" y="-456.45" font-family="Times,serif" font-size="14.00" fill="gray">Consolidate request columns ✅</text>
</g>
<!-- ImproveMany2ManyTable -->
<g id="node7" class="node">
<title>ImproveMany2ManyTable</title>
<polygon fill="none" stroke="gray" stroke-dasharray="5,2" points="264.25,-108 35.25,-108 35.25,-72 264.25,-72 264.25,-108"/>
<text xml:space="preserve" text-anchor="middle" x="149.75" y="-85.33" font-family="Times,serif" font-size="14.00" fill="gray">Improve many2many table ✅</text>
</g>
<!-- ImproveMany2ManyTable&#45;&gt;AddOtherTables -->
<g id="edge30" class="edge">
<title>ImproveMany2ManyTable&#45;&gt;AddOtherTables</title>
<path fill="none" stroke="black" d="M149.75,-71.7C149.75,-64.41 149.75,-55.73 149.75,-47.54"/>
<polygon fill="black" stroke="black" points="153.25,-47.62 149.75,-37.62 146.25,-47.62 153.25,-47.62"/>
</g>
<!-- UseMany2ManyTable -->
<g id="node8" class="node">
<title>UseMany2ManyTable</title>
<polygon fill="none" stroke="gray" stroke-dasharray="5,2" points="299.5,-191.88 0,-191.88 0,-155.88 299.5,-155.88 299.5,-191.88"/>
<text xml:space="preserve" text-anchor="middle" x="149.75" y="-169.2" font-family="Times,serif" font-size="14.00" fill="gray">Transparently use many2many table ✅</text>
</g>
<!-- UseMany2ManyTable&#45;&gt;ImproveMany2ManyTable -->
<g id="edge29" class="edge">
<title>UseMany2ManyTable&#45;&gt;ImproveMany2ManyTable</title>
<path fill="none" stroke="black" d="M149.75,-155.51C149.75,-145.09 149.75,-131.58 149.75,-119.61"/>
<polygon fill="black" stroke="black" points="153.25,-119.85 149.75,-109.85 146.25,-119.85 153.25,-119.85"/>
</g>
<!-- MigrateToMany2ManyTable -->
<g id="node9" class="node">
<title>MigrateToMany2ManyTable</title>
<polygon fill="none" stroke="gray" stroke-dasharray="5,2" points="513.5,-287.62 268,-287.62 268,-251.62 513.5,-251.62 513.5,-287.62"/>
<text xml:space="preserve" text-anchor="middle" x="390.75" y="-264.95" font-family="Times,serif" font-size="14.00" fill="gray">Migrate to many2many table ✅</text>
</g>
<!-- MigrateToMany2ManyTable&#45;&gt;UseMany2ManyTable -->
<g id="edge28" class="edge">
<title>MigrateToMany2ManyTable&#45;&gt;UseMany2ManyTable</title>
<path fill="none" stroke="black" d="M345.98,-251.21C306.2,-235.74 247.91,-213.06 205.19,-196.44"/>
<polygon fill="black" stroke="black" points="206.68,-193.27 196.09,-192.9 204.15,-199.79 206.68,-193.27"/>
</g>
<!-- ActivateGameTurnsTable -->
<g id="node10" class="node">
<title>ActivateGameTurnsTable</title>
<polygon fill="none" stroke="gray" stroke-dasharray="5,2" points="3105,-195.12 2778.5,-195.12 2778.5,-152.62 3105,-152.62 3105,-195.12"/>
<text xml:space="preserve" text-anchor="middle" x="2941.75" y="-177.82" font-family="Times,serif" font-size="14.00" fill="gray">Activate game_turns table ✅</text>
<text xml:space="preserve" text-anchor="middle" x="2941.75" y="-160.57" font-family="Times,serif" font-size="14.00" fill="gray">(schema: game_uuid, turn_idx, event jsonb)</text>
</g>
<!-- DualWriteTurns -->
<g id="node11" class="node">
<title>DualWriteTurns</title>
<polygon fill="none" stroke="gray" stroke-dasharray="5,2" points="2664.25,-299.5 2339.25,-299.5 2339.25,-239.75 2664.25,-239.75 2664.25,-299.5"/>
<text xml:space="preserve" text-anchor="middle" x="2501.75" y="-282.2" font-family="Times,serif" font-size="14.00" fill="gray">Dual&#45;write turns ✅</text>
<text xml:space="preserve" text-anchor="middle" x="2501.75" y="-264.95" font-family="Times,serif" font-size="14.00" fill="gray">(INSERT game_turns + keep history bytea;</text>
<text xml:space="preserve" text-anchor="middle" x="2501.75" y="-247.7" font-family="Times,serif" font-size="14.00" fill="gray">flag: DUAL_WRITE_TURNS)</text>
</g>
<!-- DualWriteTurns&#45;&gt;ActivateGameTurnsTable -->
<g id="edge14" class="edge">
<title>DualWriteTurns&#45;&gt;ActivateGameTurnsTable</title>
<path fill="none" stroke="black" d="M2639.46,-239.28C2701.98,-225.96 2774.86,-210.43 2833.4,-197.96"/>
<polygon fill="black" stroke="black" points="2834,-201.41 2843.05,-195.9 2832.54,-194.57 2834,-201.41"/>
</g>
<!-- SplitDBWriters -->
<g id="node12" class="node">
<title>SplitDBWriters</title>
<polygon fill="none" stroke="gray" stroke-dasharray="5,2" points="2228.62,-491 1920.88,-491 1920.88,-431.25 2228.62,-431.25 2228.62,-491"/>
<text xml:space="preserve" text-anchor="middle" x="2074.75" y="-473.7" font-family="Times,serif" font-size="14.00" fill="gray">Split DB writers ✅</text>
<text xml:space="preserve" text-anchor="middle" x="2074.75" y="-456.45" font-family="Times,serif" font-size="14.00" fill="gray">(AppendTurn, UpdateTimers,</text>
<text xml:space="preserve" text-anchor="middle" x="2074.75" y="-439.2" font-family="Times,serif" font-size="14.00" fill="gray">AppendMetaEvent, SetReady, EndGame)</text>
</g>
<!-- SplitDBWriters&#45;&gt;SQLCOtherFuncs -->
<g id="edge11" class="edge">
<title>SplitDBWriters&#45;&gt;SQLCOtherFuncs</title>
<path fill="none" stroke="black" d="M2025.93,-430.98C2003.66,-417.67 1977.64,-402.14 1956.7,-389.63"/>
<polygon fill="black" stroke="black" points="1958.55,-386.66 1948.17,-384.54 1954.96,-392.67 1958.55,-386.66"/>
</g>
<!-- BuildLiveStateFromTurns -->
<g id="node13" class="node">
<title>BuildLiveStateFromTurns</title>
<polygon fill="none" stroke="gray" stroke-dasharray="5,2" points="2952.88,-299.5 2682.62,-299.5 2682.62,-239.75 2952.88,-239.75 2952.88,-299.5"/>
<text xml:space="preserve" text-anchor="middle" x="2817.75" y="-282.2" font-family="Times,serif" font-size="14.00" fill="gray">Build live game state from turns ✅</text>
<text xml:space="preserve" text-anchor="middle" x="2817.75" y="-264.95" font-family="Times,serif" font-size="14.00" fill="gray">(shadow&#45;compare on Get;</text>
<text xml:space="preserve" text-anchor="middle" x="2817.75" y="-247.7" font-family="Times,serif" font-size="14.00" fill="gray">flag: SHADOW_TURNS)</text>
</g>
<!-- AssembleHistoryFromTurns -->
<g id="node14" class="node">
<title>AssembleHistoryFromTurns</title>
<polygon fill="none" stroke="gray" stroke-dasharray="5,2" points="1504.75,-203.75 1164.75,-203.75 1164.75,-144 1504.75,-144 1504.75,-203.75"/>
<text xml:space="preserve" text-anchor="middle" x="1334.75" y="-186.45" font-family="Times,serif" font-size="14.00" fill="gray">Assemble GameHistory from game_turns ✅</text>
<text xml:space="preserve" text-anchor="middle" x="1334.75" y="-169.2" font-family="Times,serif" font-size="14.00" fill="gray">(assembleHistory() in pkg/stores/game/s3.go;</text>
<text xml:space="preserve" text-anchor="middle" x="1334.75" y="-151.95" font-family="Times,serif" font-size="14.00" fill="gray">verify via proto.Equal against history bytea)</text>
</g>
<!-- S3UploadPath -->
<g id="node15" class="node">
<title>S3UploadPath</title>
<polygon fill="none" stroke="gray" stroke-dasharray="5,2" points="758.38,-203.75 317.12,-203.75 317.12,-144 758.38,-144 758.38,-203.75"/>
<text xml:space="preserve" text-anchor="middle" x="537.75" y="-186.45" font-family="Times,serif" font-size="14.00" fill="gray">S3 upload path ✅</text>
<text xml:space="preserve" text-anchor="middle" x="537.75" y="-169.2" font-family="Times,serif" font-size="14.00" fill="gray">(gzipped protojson, games/&lt;yyyy&gt;/&lt;mm&gt;/&lt;uuid&gt;.json.gz;</text>
<text xml:space="preserve" text-anchor="middle" x="537.75" y="-151.95" font-family="Times,serif" font-size="14.00" fill="gray">creation&#45;date partitioning; MinIO in dev)</text>
</g>
<!-- S3UrlColumnOnGames -->
<g id="node16" class="node">
<title>S3UrlColumnOnGames</title>
<polygon fill="none" stroke="gray" stroke-dasharray="5,2" points="1147.12,-195.12 776.38,-195.12 776.38,-152.62 1147.12,-152.62 1147.12,-195.12"/>
<text xml:space="preserve" text-anchor="middle" x="961.75" y="-177.82" font-family="Times,serif" font-size="14.00" fill="gray">Add history_s3_key column to games ✅</text>
<text xml:space="preserve" text-anchor="middle" x="961.75" y="-160.57" font-family="Times,serif" font-size="14.00" fill="gray">(partial index on NULL for pending&#45;archival scan)</text>
</g>
<!-- S3ArchiveOnGameEnd -->
<g id="node17" class="node">
<title>S3ArchiveOnGameEnd</title>
<polygon fill="none" stroke="gray" stroke-dasharray="5,2" points="938.88,-299.5 560.62,-299.5 560.62,-239.75 938.88,-239.75 938.88,-299.5"/>
<text xml:space="preserve" text-anchor="middle" x="749.75" y="-282.2" font-family="Times,serif" font-size="14.00" fill="gray">Archive GameHistory to S3 on game end ✅</text>
<text xml:space="preserve" text-anchor="middle" x="749.75" y="-264.95" font-family="Times,serif" font-size="14.00" fill="gray">(assemble → verify → upload → CommitArchival tx;</text>
<text xml:space="preserve" text-anchor="middle" x="749.75" y="-247.7" font-family="Times,serif" font-size="14.00" fill="gray">cmd/upload&#45;game&#45;archive/ backfill script)</text>
</g>
<!-- S3ArchiveOnGameEnd&#45;&gt;AssembleHistoryFromTurns -->
<g id="edge31" class="edge">
<title>S3ArchiveOnGameEnd&#45;&gt;AssembleHistoryFromTurns</title>
<path fill="none" stroke="black" d="M933.93,-239.25C1000.33,-228.65 1076.1,-216.53 1153.72,-204.08"/>
<polygon fill="black" stroke="black" points="1153.87,-207.6 1163.19,-202.56 1152.76,-200.68 1153.87,-207.6"/>
</g>
<!-- S3ArchiveOnGameEnd&#45;&gt;S3UploadPath -->
<g id="edge32" class="edge">
<title>S3ArchiveOnGameEnd&#45;&gt;S3UploadPath</title>
<path fill="none" stroke="black" d="M683.54,-239.35C661.52,-229.61 636.83,-218.69 614.1,-208.64"/>
<polygon fill="black" stroke="black" points="615.76,-205.55 605.2,-204.7 612.93,-211.95 615.76,-205.55"/>
</g>
<!-- S3ArchiveOnGameEnd&#45;&gt;S3UrlColumnOnGames -->
<g id="edge33" class="edge">
<title>S3ArchiveOnGameEnd&#45;&gt;S3UrlColumnOnGames</title>
<path fill="none" stroke="black" d="M815.96,-239.35C844.4,-226.77 877.31,-212.22 904.66,-200.12"/>
<polygon fill="black" stroke="black" points="905.73,-203.48 913.46,-196.23 902.9,-197.07 905.73,-203.48"/>
</g>
<!-- FixGameDocumentBugs -->
<g id="node18" class="node">
<title>FixGameDocumentBugs</title>
<polygon fill="#f0f0f0" stroke="lightgray" stroke-dasharray="5,2" points="2545.12,-781.3 2264.38,-781.3 2264.38,-738.8 2545.12,-738.8 2545.12,-781.3"/>
<text xml:space="preserve" text-anchor="middle" x="2404.75" y="-764" font-family="Times,serif" font-size="14.00" fill="lightgray">Fix and test GameDocument bugs ❌</text>
<text xml:space="preserve" text-anchor="middle" x="2404.75" y="-746.75" font-family="Times,serif" font-size="14.00" fill="lightgray">(GameDocument being retired)</text>
</g>
<!-- AddPastGamesTable -->
<g id="node19" class="node">
<title>AddPastGamesTable</title>
<polygon fill="#f0f0f0" stroke="lightgray" stroke-dasharray="5,2" points="2822.25,-781.3 2563.25,-781.3 2563.25,-738.8 2822.25,-738.8 2822.25,-781.3"/>
<text xml:space="preserve" text-anchor="middle" x="2692.75" y="-764" font-family="Times,serif" font-size="14.00" fill="lightgray">Add PastGames table ❌</text>
<text xml:space="preserve" text-anchor="middle" x="2692.75" y="-746.75" font-family="Times,serif" font-size="14.00" fill="lightgray">(superseded by S3 + game_turns)</text>
</g>
<!-- UsePastGamesTable -->
<g id="node20" class="node">
<title>UsePastGamesTable</title>
<polygon fill="#f0f0f0" stroke="lightgray" stroke-dasharray="5,2" points="3132.75,-778.05 2840.75,-778.05 2840.75,-742.05 3132.75,-742.05 3132.75,-778.05"/>
<text xml:space="preserve" text-anchor="middle" x="2986.75" y="-755.38" font-family="Times,serif" font-size="14.00" fill="lightgray">Transparently use PastGames table ❌</text>
</g>
<!-- MigrateToPastGamesTable -->
<g id="node21" class="node">
<title>MigrateToPastGamesTable</title>
<polygon fill="#f0f0f0" stroke="lightgray" stroke-dasharray="5,2" points="3388.75,-778.05 3150.75,-778.05 3150.75,-742.05 3388.75,-742.05 3388.75,-778.05"/>
<text xml:space="preserve" text-anchor="middle" x="3269.75" y="-755.38" font-family="Times,serif" font-size="14.00" fill="lightgray">Migrate to PastGames table ❌</text>
</g>
<!-- RemoveGameCache -->
<g id="node25" class="node">
<title>RemoveGameCache</title>
<polygon fill="none" stroke="black" points="2248.5,-566.25 2087,-566.25 2087,-530.25 2248.5,-530.25 2248.5,-566.25"/>
<text xml:space="preserve" text-anchor="middle" x="2167.75" y="-543.58" font-family="Times,serif" font-size="14.00">Remove game cache</text>
</g>
<!-- MoreSimultaneousGames&#45;&gt;RemoveGameCache -->
<g id="edge5" class="edge">
<title>MoreSimultaneousGames&#45;&gt;RemoveGameCache</title>
<path fill="none" stroke="black" d="M2205.24,-617.29C2198.74,-605.5 2190,-589.63 2182.59,-576.19"/>
<polygon fill="black" stroke="black" points="2185.87,-574.88 2177.98,-567.81 2179.74,-578.26 2185.87,-574.88"/>
</g>
<!-- LessDowntimeBetweenDeploys&#45;&gt;RemoveGameCache -->
<g id="edge6" class="edge">
<title>LessDowntimeBetweenDeploys&#45;&gt;RemoveGameCache</title>
<path fill="none" stroke="black" d="M1911.69,-617.08C1963.67,-603.31 2036.26,-584.08 2090.88,-569.61"/>
<polygon fill="black" stroke="black" points="2091.67,-573.03 2100.44,-567.08 2089.87,-566.26 2091.67,-573.03"/>
</g>
<!-- EfficientTable -->
<g id="node26" class="node">
<title>EfficientTable</title>
<polygon fill="none" stroke="black" points="1593.88,-566.25 1317.62,-566.25 1317.62,-530.25 1593.88,-530.25 1593.88,-566.25"/>
<text xml:space="preserve" text-anchor="middle" x="1455.75" y="-543.58" font-family="Times,serif" font-size="14.00">Make game DB model more efficient</text>
</g>
<!-- MakeDBFaster&#45;&gt;EfficientTable -->
<g id="edge16" class="edge">
<title>MakeDBFaster&#45;&gt;EfficientTable</title>
<path fill="none" stroke="black" d="M1455.75,-617.29C1455.75,-605.96 1455.75,-590.87 1455.75,-577.78"/>
<polygon fill="black" stroke="black" points="1459.25,-578 1455.75,-568 1452.25,-578 1459.25,-578"/>
</g>
<!-- ClearLargeFields -->
<g id="node31" class="node">
<title>ClearLargeFields</title>
<polygon fill="none" stroke="black" points="1048.62,-569.5 800.88,-569.5 800.88,-527 1048.62,-527 1048.62,-569.5"/>
<text xml:space="preserve" text-anchor="middle" x="924.75" y="-552.2" font-family="Times,serif" font-size="14.00">Clear large fields in games table</text>
<text xml:space="preserve" text-anchor="middle" x="924.75" y="-534.95" font-family="Times,serif" font-size="14.00">(history, stats, quickdata)</text>
</g>
<!-- MakeDBFaster&#45;&gt;ClearLargeFields -->
<g id="edge17" class="edge">
<title>MakeDBFaster&#45;&gt;ClearLargeFields</title>
<path fill="none" stroke="black" d="M1347.01,-617.08C1263.94,-603.74 1148.96,-585.27 1059.96,-570.97"/>
<polygon fill="black" stroke="black" points="1060.61,-567.53 1050.18,-569.4 1059.5,-574.44 1060.61,-567.53"/>
</g>
<!-- RemoveGameCache&#45;&gt;SplitDBWriters -->
<g id="edge8" class="edge">
<title>RemoveGameCache&#45;&gt;SplitDBWriters</title>
<path fill="none" stroke="black" d="M2148.93,-530.02C2139.19,-521.11 2126.91,-509.87 2115.15,-499.11"/>
<polygon fill="black" stroke="black" points="2117.59,-496.59 2107.85,-492.42 2112.86,-501.75 2117.59,-496.59"/>
</g>
<!-- AdvisoryLockWriters -->
<g id="node27" class="node">
<title>AdvisoryLockWriters</title>
<polygon fill="none" stroke="black" points="2509.12,-482.38 2246.38,-482.38 2246.38,-439.88 2509.12,-439.88 2509.12,-482.38"/>
<text xml:space="preserve" text-anchor="middle" x="2377.75" y="-465.07" font-family="Times,serif" font-size="14.00">Replace in&#45;process locks with</text>
<text xml:space="preserve" text-anchor="middle" x="2377.75" y="-447.82" font-family="Times,serif" font-size="14.00">pg_advisory_xact_lock per write tx</text>
</g>
<!-- RemoveGameCache&#45;&gt;AdvisoryLockWriters -->
<g id="edge7" class="edge">
<title>RemoveGameCache&#45;&gt;AdvisoryLockWriters</title>
<path fill="none" stroke="black" d="M2210.75,-529.82C2241.2,-517.48 2282.49,-500.74 2316.39,-487"/>
<polygon fill="black" stroke="black" points="2317.3,-490.41 2325.25,-483.41 2314.67,-483.92 2317.3,-490.41"/>
</g>
<!-- CheapGameLoad -->
<g id="node28" class="node">
<title>CheapGameLoad</title>
<polygon fill="none" stroke="black" points="2770.38,-482.38 2527.12,-482.38 2527.12,-439.88 2770.38,-439.88 2770.38,-482.38"/>
<text xml:space="preserve" text-anchor="middle" x="2648.75" y="-465.07" font-family="Times,serif" font-size="14.00">Cheap per&#45;move game load</text>
<text xml:space="preserve" text-anchor="middle" x="2648.75" y="-447.82" font-family="Times,serif" font-size="14.00">(no full&#45;history replay per node)</text>
</g>
<!-- RemoveGameCache&#45;&gt;CheapGameLoad -->
<g id="edge9" class="edge">
<title>RemoveGameCache&#45;&gt;CheapGameLoad</title>
<path fill="none" stroke="black" d="M2248.96,-535.55C2320.05,-524.99 2426.01,-508.47 2517.75,-491 2527.22,-489.2 2537.06,-487.22 2546.9,-485.17"/>
<polygon fill="black" stroke="black" points="2547.44,-488.64 2556.5,-483.15 2545.99,-481.79 2547.44,-488.64"/>
</g>
<!-- GracefulCacheDrain -->
<g id="node30" class="node">
<title>GracefulCacheDrain</title>
<polygon fill="none" stroke="black" points="1903,-482.38 1642.5,-482.38 1642.5,-439.88 1903,-439.88 1903,-482.38"/>
<text xml:space="preserve" text-anchor="middle" x="1772.75" y="-465.07" font-family="Times,serif" font-size="14.00">Graceful cache drain on SIGTERM</text>
<text xml:space="preserve" text-anchor="middle" x="1772.75" y="-447.82" font-family="Times,serif" font-size="14.00">(refuse new moves; let txs drain)</text>
</g>
<!-- RemoveGameCache&#45;&gt;GracefulCacheDrain -->
<g id="edge10" class="edge">
<title>RemoveGameCache&#45;&gt;GracefulCacheDrain</title>
<path fill="none" stroke="black" d="M2086.86,-529.82C2027.12,-516.94 1945.2,-499.29 1880,-485.24"/>
<polygon fill="black" stroke="black" points="1880.85,-481.84 1870.34,-483.16 1879.37,-488.68 1880.85,-481.84"/>
</g>
<!-- EfficientTable&#45;&gt;SQLCDBStore -->
<g id="edge19" class="edge">
<title>EfficientTable&#45;&gt;SQLCDBStore</title>
<path fill="none" stroke="black" d="M1465.26,-530.02C1471.65,-518.45 1480.22,-502.94 1487.54,-489.67"/>
<polygon fill="black" stroke="black" points="1490.59,-491.39 1492.36,-480.94 1484.46,-488.01 1490.59,-491.39"/>
</g>
<!-- EfficientTable&#45;&gt;ConsolidateRequestColumns -->
<g id="edge18" class="edge">
<title>EfficientTable&#45;&gt;ConsolidateRequestColumns</title>
<path fill="none" stroke="black" d="M1411.72,-529.82C1377.95,-516.45 1331.17,-497.92 1295.07,-483.63"/>
<polygon fill="black" stroke="black" points="1296.71,-480.52 1286.13,-480.09 1294.13,-487.03 1296.71,-480.52"/>
</g>
<!-- ReadPathFromTurns -->
<g id="node29" class="node">
<title>ReadPathFromTurns</title>
<polygon fill="none" stroke="black" points="2771.5,-386.62 2526,-386.62 2526,-344.12 2771.5,-344.12 2771.5,-386.62"/>
<text xml:space="preserve" text-anchor="middle" x="2648.75" y="-369.32" font-family="Times,serif" font-size="14.00">Switch read path to game_turns</text>
<text xml:space="preserve" text-anchor="middle" x="2648.75" y="-352.07" font-family="Times,serif" font-size="14.00">(history bytea no longer read)</text>
</g>
<!-- CheapGameLoad&#45;&gt;ReadPathFromTurns -->
<g id="edge12" class="edge">
<title>CheapGameLoad&#45;&gt;ReadPathFromTurns</title>
<path fill="none" stroke="black" d="M2648.75,-439.78C2648.75,-427.7 2648.75,-412.12 2648.75,-398.42"/>
<polygon fill="black" stroke="black" points="2652.25,-398.51 2648.75,-388.51 2645.25,-398.51 2652.25,-398.51"/>
</g>
<!-- ReadPathFromTurns&#45;&gt;DualWriteTurns -->
<g id="edge13" class="edge">
<title>ReadPathFromTurns&#45;&gt;DualWriteTurns</title>
<path fill="none" stroke="black" d="M2616.49,-343.8C2599.13,-332.73 2577.24,-318.77 2557.24,-306.01"/>
<polygon fill="black" stroke="black" points="2559.19,-303.1 2548.87,-300.68 2555.42,-309.01 2559.19,-303.1"/>
</g>
<!-- ReadPathFromTurns&#45;&gt;BuildLiveStateFromTurns -->
<g id="edge15" class="edge">
<title>ReadPathFromTurns&#45;&gt;BuildLiveStateFromTurns</title>
<path fill="none" stroke="black" d="M2685.84,-343.8C2706.16,-332.53 2731.88,-318.26 2755.21,-305.32"/>
<polygon fill="black" stroke="black" points="2756.67,-308.51 2763.72,-300.6 2753.27,-302.39 2756.67,-308.51"/>
</g>
<!-- MigrateStatsToClickhouse -->
<g id="node32" class="node">
<title>MigrateStatsToClickhouse</title>
<polygon fill="none" stroke="black" points="1100,-491 749.5,-491 749.5,-431.25 1100,-431.25 1100,-491"/>
<text xml:space="preserve" text-anchor="middle" x="924.75" y="-473.7" font-family="Times,serif" font-size="14.00">Migrate game stats to ClickHouse</text>
<text xml:space="preserve" text-anchor="middle" x="924.75" y="-456.45" font-family="Times,serif" font-size="14.00">(replaces liststats + games.stats;</text>
<text xml:space="preserve" text-anchor="middle" x="924.75" y="-439.2" font-family="Times,serif" font-size="14.00">reads assembled GameHistory at end&#45;of&#45;game)</text>
</g>
<!-- ClearLargeFields&#45;&gt;MigrateStatsToClickhouse -->
<g id="edge23" class="edge">
<title>ClearLargeFields&#45;&gt;MigrateStatsToClickhouse</title>
<path fill="none" stroke="black" d="M924.75,-526.64C924.75,-519.34 924.75,-510.84 924.75,-502.46"/>
<polygon fill="black" stroke="black" points="928.25,-502.74 924.75,-492.74 921.25,-502.74 928.25,-502.74"/>
</g>
<!-- OnlyUseNewStorage -->
<g id="node33" class="node">
<title>OnlyUseNewStorage</title>
<polygon fill="none" stroke="black" points="731.5,-482.38 462,-482.38 462,-439.88 731.5,-439.88 731.5,-482.38"/>
<text xml:space="preserve" text-anchor="middle" x="596.75" y="-465.07" font-family="Times,serif" font-size="14.00">Only use new storage</text>
<text xml:space="preserve" text-anchor="middle" x="596.75" y="-447.82" font-family="Times,serif" font-size="14.00">(game_turns + S3 + game_players)</text>
</g>
<!-- ClearLargeFields&#45;&gt;OnlyUseNewStorage -->
<g id="edge22" class="edge">
<title>ClearLargeFields&#45;&gt;OnlyUseNewStorage</title>
<path fill="none" stroke="black" d="M844.93,-526.53C797.42,-514.2 736.98,-498.52 687.64,-485.71"/>
<polygon fill="black" stroke="black" points="688.67,-482.36 678.11,-483.24 686.91,-489.14 688.67,-482.36"/>
</g>
<!-- OnlyUseNewStorage&#45;&gt;S3ArchiveOnGameEnd -->
<g id="edge25" class="edge">
<title>OnlyUseNewStorage&#45;&gt;S3ArchiveOnGameEnd</title>
<path fill="none" stroke="black" d="M594.39,-439.39C592.49,-412.71 593.14,-366.15 615.75,-335.5 624.49,-323.65 635.98,-313.86 648.56,-305.8"/>
<polygon fill="black" stroke="black" points="650.26,-308.86 657.06,-300.74 646.68,-302.85 650.26,-308.86"/>
</g>
<!-- ReplaceQuickData -->
<g id="node34" class="node">
<title>ReplaceQuickData</title>
<polygon fill="none" stroke="black" points="538.12,-386.62 305.38,-386.62 305.38,-344.12 538.12,-344.12 538.12,-386.62"/>
<text xml:space="preserve" text-anchor="middle" x="421.75" y="-369.32" font-family="Times,serif" font-size="14.00">Replace QuickData with JOINs</text>
<text xml:space="preserve" text-anchor="middle" x="421.75" y="-352.07" font-family="Times,serif" font-size="14.00">(game_players + users)</text>
</g>
<!-- OnlyUseNewStorage&#45;&gt;ReplaceQuickData -->
<g id="edge24" class="edge">
<title>OnlyUseNewStorage&#45;&gt;ReplaceQuickData</title>
<path fill="none" stroke="black" d="M558.35,-439.55C532.45,-425.68 498.07,-407.26 470.28,-392.37"/>
<polygon fill="black" stroke="black" points="472.17,-389.41 461.7,-387.78 468.86,-395.58 472.17,-389.41"/>
</g>
<!-- S3LoadPath -->
<g id="node35" class="node">
<title>S3LoadPath</title>
<polygon fill="none" stroke="black" points="874.75,-386.62 624.75,-386.62 624.75,-344.12 874.75,-344.12 874.75,-386.62"/>
<text xml:space="preserve" text-anchor="middle" x="749.75" y="-369.32" font-family="Times,serif" font-size="14.00">Load GameHistory from S3</text>
<text xml:space="preserve" text-anchor="middle" x="749.75" y="-352.07" font-family="Times,serif" font-size="14.00">(fallback to legacy history bytea)</text>
</g>
<!-- OnlyUseNewStorage&#45;&gt;S3LoadPath -->
<g id="edge26" class="edge">
<title>OnlyUseNewStorage&#45;&gt;S3LoadPath</title>
<path fill="none" stroke="black" d="M630.33,-439.55C652.67,-425.86 682.24,-407.74 706.36,-392.96"/>
<polygon fill="black" stroke="black" points="708,-396.06 714.7,-387.85 704.34,-390.09 708,-396.06"/>
</g>
<!-- ReplaceQuickData&#45;&gt;MigrateToMany2ManyTable -->
<g id="edge27" class="edge">
<title>ReplaceQuickData&#45;&gt;MigrateToMany2ManyTable</title>
<path fill="none" stroke="black" d="M415.02,-344.03C410.67,-330.86 404.93,-313.52 400.13,-299"/>
<polygon fill="black" stroke="black" points="403.46,-297.92 397,-289.53 396.82,-300.12 403.46,-297.92"/>
</g>
<!-- S3LoadPath&#45;&gt;S3ArchiveOnGameEnd -->
<g id="edge34" class="edge">
<title>S3LoadPath&#45;&gt;S3ArchiveOnGameEnd</title>
<path fill="none" stroke="black" d="M749.75,-344.03C749.75,-334.44 749.75,-322.64 749.75,-311.32"/>
<polygon fill="black" stroke="black" points="753.25,-311.34 749.75,-301.34 746.25,-311.34 753.25,-311.34"/>
</g>
<!-- MoveGameHistoryProto -->
<g id="node37" class="node">
<title>MoveGameHistoryProto</title>
<polygon fill="none" stroke="black" points="3462.75,-569.5 3176.75,-569.5 3176.75,-527 3462.75,-527 3462.75,-569.5"/>
<text xml:space="preserve" text-anchor="middle" x="3319.75" y="-552.2" font-family="Times,serif" font-size="14.00">Move GameHistory proto into liwords</text>
<text xml:space="preserve" text-anchor="middle" x="3319.75" y="-534.95" font-family="Times,serif" font-size="14.00">(api/proto/ipc/game_history.proto)</text>
</g>
<!-- DeprecateGameDocument&#45;&gt;MoveGameHistoryProto -->
<g id="edge35" class="edge">
<title>DeprecateGameDocument&#45;&gt;MoveGameHistoryProto</title>
<path fill="none" stroke="black" d="M3039.16,-610.62C3093.87,-598.66 3159.78,-584.24 3213.97,-572.39"/>
<polygon fill="black" stroke="black" points="3214.5,-575.85 3223.52,-570.3 3213,-569.02 3214.5,-575.85"/>
</g>
<!-- PortMacondoReferee -->
<g id="node39" class="node">
<title>PortMacondoReferee</title>
<polygon fill="none" stroke="black" points="3180.62,-395.25 2920.88,-395.25 2920.88,-335.5 3180.62,-335.5 3180.62,-395.25"/>
<text xml:space="preserve" text-anchor="middle" x="3050.75" y="-377.95" font-family="Times,serif" font-size="14.00">Port macondo referee into liwords</text>
<text xml:space="preserve" text-anchor="middle" x="3050.75" y="-360.7" font-family="Times,serif" font-size="14.00">(pkg/game/: validation, scoring,</text>
<text xml:space="preserve" text-anchor="middle" x="3050.75" y="-343.45" font-family="Times,serif" font-size="14.00">challenge, end&#45;game — NOT AI)</text>
</g>
<!-- DeprecateGameDocument&#45;&gt;PortMacondoReferee -->
<g id="edge36" class="edge">
<title>DeprecateGameDocument&#45;&gt;PortMacondoReferee</title>
<path fill="none" stroke="black" d="M2893.21,-605.69C2845.86,-564.77 2774.24,-488.53 2817.75,-431.25 2830.31,-414.71 2867.95,-401.27 2909.41,-391"/>
<polygon fill="black" stroke="black" points="2910.22,-394.4 2919.13,-388.67 2908.59,-387.6 2910.22,-394.4"/>
</g>
<!-- MigrateNativeGamesToPkgGame -->
<g id="node41" class="node">
<title>MigrateNativeGamesToPkgGame</title>
<polygon fill="none" stroke="black" points="3218.62,-482.38 2826.88,-482.38 2826.88,-439.88 3218.62,-439.88 3218.62,-482.38"/>
<text xml:space="preserve" text-anchor="middle" x="3022.75" y="-465.07" font-family="Times,serif" font-size="14.00">Migrate native game path to pkg/game</text>
<text xml:space="preserve" text-anchor="middle" x="3022.75" y="-447.82" font-family="Times,serif" font-size="14.00">(entity.Game stops embedding macondogame.Game)</text>
</g>
<!-- DeprecateGameDocument&#45;&gt;MigrateNativeGamesToPkgGame -->
<g id="edge37" class="edge">
<title>DeprecateGameDocument&#45;&gt;MigrateNativeGamesToPkgGame</title>
<path fill="none" stroke="black" d="M2898.77,-605.74C2878.73,-583.51 2859.21,-552.38 2875.75,-527 2886.99,-509.75 2903.98,-497.05 2922.46,-487.71"/>
<polygon fill="black" stroke="black" points="2923.9,-490.91 2931.48,-483.51 2920.94,-484.56 2923.9,-490.91"/>
</g>
<!-- MigrateAnnotatorToPkgGame -->
<g id="node42" class="node">
<title>MigrateAnnotatorToPkgGame</title>
<polygon fill="none" stroke="black" points="3582.38,-482.38 3237.12,-482.38 3237.12,-439.88 3582.38,-439.88 3582.38,-482.38"/>
<text xml:space="preserve" text-anchor="middle" x="3409.75" y="-465.07" font-family="Times,serif" font-size="14.00">Migrate annotator to pkg/game + game_turns</text>
<text xml:space="preserve" text-anchor="middle" x="3409.75" y="-447.82" font-family="Times,serif" font-size="14.00">(pkg/omgwords/* rewritten)</text>
</g>
<!-- DeprecateGameDocument&#45;&gt;MigrateAnnotatorToPkgGame -->
<g id="edge38" class="edge">
<title>DeprecateGameDocument&#45;&gt;MigrateAnnotatorToPkgGame</title>
<path fill="none" stroke="black" d="M3038.51,-610.53C3069.52,-600.74 3102.3,-587.4 3129.75,-569.5 3150.97,-555.66 3146.17,-540.28 3167.75,-527 3197.67,-508.59 3232.79,-495.34 3266.86,-485.83"/>
<polygon fill="black" stroke="black" points="3267.67,-489.23 3276.42,-483.26 3265.85,-482.47 3267.67,-489.23"/>
</g>
<!-- RemoveMacondoRuntimeDep -->
<g id="node45" class="node">
<title>RemoveMacondoRuntimeDep</title>
<polygon fill="none" stroke="black" points="3121,-569.5 2884.5,-569.5 2884.5,-527 3121,-527 3121,-569.5"/>
<text xml:space="preserve" text-anchor="middle" x="3002.75" y="-552.2" font-family="Times,serif" font-size="14.00">Remove macondo from go.mod</text>
<text xml:space="preserve" text-anchor="middle" x="3002.75" y="-534.95" font-family="Times,serif" font-size="14.00">(puzzles/memento deferred)</text>
</g>
<!-- DeprecateGameDocument&#45;&gt;RemoveMacondoRuntimeDep -->
<g id="edge39" class="edge">
<title>DeprecateGameDocument&#45;&gt;RemoveMacondoRuntimeDep</title>
<path fill="none" stroke="black" d="M2954.46,-605.67C2962.03,-596.83 2970.36,-587.1 2977.94,-578.24"/>
<polygon fill="black" stroke="black" points="2980.38,-580.77 2984.22,-570.9 2975.06,-576.22 2980.38,-580.77"/>
</g>
<!-- UpdateGoImports -->
<g id="node38" class="node">
<title>UpdateGoImports</title>
<polygon fill="none" stroke="black" points="3418.12,-656.8 3221.38,-656.8 3221.38,-614.3 3418.12,-614.3 3418.12,-656.8"/>
<text xml:space="preserve" text-anchor="middle" x="3319.75" y="-639.5" font-family="Times,serif" font-size="14.00">Update all Go imports to</text>
<text xml:space="preserve" text-anchor="middle" x="3319.75" y="-622.25" font-family="Times,serif" font-size="14.00">use liwords GameHistory</text>
</g>
<!-- UpdateGoImports&#45;&gt;MoveGameHistoryProto -->
<g id="edge40" class="edge">
<title>UpdateGoImports&#45;&gt;MoveGameHistoryProto</title>
<path fill="none" stroke="black" d="M3319.75,-613.9C3319.75,-604.05 3319.75,-592.05 3319.75,-581.07"/>
<polygon fill="black" stroke="black" points="3323.25,-581.22 3319.75,-571.22 3316.25,-581.22 3323.25,-581.22"/>
</g>
<!-- AuditRefereeGap -->
<g id="node40" class="node">
<title>AuditRefereeGap</title>
<polygon fill="none" stroke="black" points="3243,-299.5 2970.5,-299.5 2970.5,-239.75 3243,-239.75 3243,-299.5"/>
<text xml:space="preserve" text-anchor="middle" x="3106.75" y="-282.2" font-family="Times,serif" font-size="14.00">Audit referee gap:</text>
<text xml:space="preserve" text-anchor="middle" x="3106.75" y="-264.95" font-family="Times,serif" font-size="14.00">list macondo/game methods needed</text>
<text xml:space="preserve" text-anchor="middle" x="3106.75" y="-247.7" font-family="Times,serif" font-size="14.00">(timebox this)</text>
</g>
<!-- PortMacondoReferee&#45;&gt;AuditRefereeGap -->
<g id="edge41" class="edge">
<title>PortMacondoReferee&#45;&gt;AuditRefereeGap</title>
<path fill="none" stroke="black" d="M3068.16,-335.23C3073.01,-327.11 3078.35,-318.17 3083.48,-309.59"/>
<polygon fill="black" stroke="black" points="3086.45,-311.44 3088.57,-301.06 3080.44,-307.85 3086.45,-311.44"/>
</g>
<!-- MigrateNativeGamesToPkgGame&#45;&gt;PortMacondoReferee -->
<g id="edge42" class="edge">
<title>MigrateNativeGamesToPkgGame&#45;&gt;PortMacondoReferee</title>
<path fill="none" stroke="black" d="M3028.83,-439.78C3031.75,-429.99 3035.36,-417.89 3038.81,-406.36"/>
<polygon fill="black" stroke="black" points="3042.09,-407.61 3041.6,-397.02 3035.38,-405.6 3042.09,-407.61"/>
</g>
<!-- MigrateAnnotatorToPkgGame&#45;&gt;ActivateGameTurnsTable -->
<g id="edge44" class="edge">
<title>MigrateAnnotatorToPkgGame&#45;&gt;ActivateGameTurnsTable</title>
<path fill="none" stroke="black" d="M3401.27,-439.49C3381.91,-395.16 3330.04,-290.77 3251.75,-239.75 3211.77,-213.7 3163.26,-197.85 3116.61,-188.29"/>
<polygon fill="black" stroke="black" points="3117.4,-184.88 3106.92,-186.4 3116.06,-191.75 3117.4,-184.88"/>
</g>
<!-- MigrateAnnotatorToPkgGame&#45;&gt;PortMacondoReferee -->
<g id="edge43" class="edge">
<title>MigrateAnnotatorToPkgGame&#45;&gt;PortMacondoReferee</title>
<path fill="none" stroke="black" d="M3330.52,-439.44C3284.64,-427.45 3225.89,-412.11 3174.08,-398.58"/>
<polygon fill="black" stroke="black" points="3175.17,-395.25 3164.61,-396.11 3173.4,-402.02 3175.17,-395.25"/>
</g>
<!-- DropGameDocumentsTable -->
<g id="node43" class="node">
<title>DropGameDocumentsTable</title>
<polygon fill="none" stroke="black" points="3700.75,-566.25 3480.75,-566.25 3480.75,-530.25 3700.75,-530.25 3700.75,-566.25"/>
<text xml:space="preserve" text-anchor="middle" x="3590.75" y="-543.58" font-family="Times,serif" font-size="14.00">Drop game_documents table</text>
</g>
<!-- DropGameDocumentsTable&#45;&gt;MigrateAnnotatorToPkgGame -->
<g id="edge45" class="edge">
<title>DropGameDocumentsTable&#45;&gt;MigrateAnnotatorToPkgGame</title>
<path fill="none" stroke="black" d="M3553.69,-529.82C3527.89,-517.69 3493.08,-501.32 3464.15,-487.71"/>
<polygon fill="black" stroke="black" points="3465.7,-484.57 3455.16,-483.48 3462.72,-490.9 3465.7,-484.57"/>
</g>
<!-- RetireCwgame -->
<g id="node44" class="node">
<title>RetireCwgame</title>
<polygon fill="none" stroke="black" points="4014.62,-569.5 3718.88,-569.5 3718.88,-527 4014.62,-527 4014.62,-569.5"/>
<text xml:space="preserve" text-anchor="middle" x="3866.75" y="-552.2" font-family="Times,serif" font-size="14.00">Retire pkg/cwgame/*</text>
<text xml:space="preserve" text-anchor="middle" x="3866.75" y="-534.95" font-family="Times,serif" font-size="14.00">(move GCG/CGP to pkg/game/formats/)</text>
</g>
<!-- RetireCwgame&#45;&gt;MigrateAnnotatorToPkgGame -->
<g id="edge46" class="edge">
<title>RetireCwgame&#45;&gt;MigrateAnnotatorToPkgGame</title>
<path fill="none" stroke="black" d="M3755.54,-526.53C3687.95,-513.95 3601.58,-497.86 3532.07,-484.91"/>
<polygon fill="black" stroke="black" points="3533.02,-481.53 3522.55,-483.14 3531.74,-488.41 3533.02,-481.53"/>
</g>
<!-- RemoveMacondoRuntimeDep&#45;&gt;MigrateNativeGamesToPkgGame -->
<g id="edge47" class="edge">
<title>RemoveMacondoRuntimeDep&#45;&gt;MigrateNativeGamesToPkgGame</title>
<path fill="none" stroke="black" d="M3007.59,-526.64C3009.91,-516.78 3012.73,-504.76 3015.31,-493.77"/>
<polygon fill="black" stroke="black" points="3018.66,-494.85 3017.54,-484.31 3011.84,-493.24 3018.66,-494.85"/>
</g>
<!-- RemoveMacondoRuntimeDep&#45;&gt;MigrateAnnotatorToPkgGame -->
<g id="edge48" class="edge">
<title>RemoveMacondoRuntimeDep&#45;&gt;MigrateAnnotatorToPkgGame</title>
<path fill="none" stroke="black" d="M3101.79,-526.53C3161.61,-514.02 3237.96,-498.06 3299.67,-485.15"/>
<polygon fill="black" stroke="black" points="3300.06,-488.64 3309.13,-483.17 3298.63,-481.79 3300.06,-488.64"/>
</g>
</g>
</svg>
