<?xml version="1.0" encoding="UTF-8" standalone="no"?>
<!DOCTYPE svg PUBLIC "-//W3C//DTD SVG 1.1//EN"
 "http://www.w3.org/Graphics/SVG/1.1/DTD/svg11.dtd">
<!-- Generated by graphviz version 14.1.5 (0)
 -->
<!-- Title: RedoGameModel Pages: 1 -->
<svg width="4549pt" height="957pt"
 viewBox="0.00 0.00 4549.00 957.00" xmlns="http://www.w3.org/2000/svg" xmlns:xlink="http://www.w3.org/1999/xlink">
<g id="graph0" class="graph" transform="scale(1 1) rotate(0) translate(4 952.75)">
<title>RedoGameModel</title>
<polygon fill="white" stroke="none" points="-4,4 -4,-952.75 4545.38,-952.75 4545.38,4 -4,4"/>
<!-- Goal -->
<g id="node1" class="node">
<title>Goal</title>
<ellipse fill="none" stroke="black" stroke-width="2" cx="2581.38" cy="-890.3" rx="212.84" ry="54.45"/>
<ellipse fill="none" stroke="black" stroke-width="2" cx="2581.38" cy="-890.3" rx="216.84" ry="58.45"/>
<text xml:space="preserve" text-anchor="middle" x="2581.38" y="-911.5" font-family="Times,serif" font-size="14.00">Redo game model to support</text>
<text xml:space="preserve" text-anchor="middle" x="2581.38" y="-894.25" font-family="Times,serif" font-size="14.00">1) more simultaneous games</text>
<text xml:space="preserve" text-anchor="middle" x="2581.38" y="-877" font-family="Times,serif" font-size="14.00">2) less downtime between deploys</text>
<text xml:space="preserve" text-anchor="middle" x="2581.38" y="-859.75" font-family="Times,serif" font-size="14.00">3) make DB faster to back up and query</text>
</g>
<!-- MoreSimultaneousGames -->
<g id="node27" class="node">
<title>MoreSimultaneousGames</title>
<polygon fill="none" stroke="black" points="2592.88,-783.8 2201.88,-783.8 2201.88,-747.8 2592.88,-747.8 2592.88,-783.8"/>
<text xml:space="preserve" text-anchor="middle" x="2397.38" y="-761.13" font-family="Times,serif" font-size="14.00">Allow for more simultaneous games than cache limit</text>
</g>
<!-- Goal&#45;&gt;MoreSimultaneousGames -->
<g id="edge1" class="edge">
<title>Goal&#45;&gt;MoreSimultaneousGames</title>
<path fill="none" stroke="black" d="M2500.67,-835.57C2476.99,-819.81 2452.29,-803.36 2432.99,-790.51"/>
<polygon fill="black" stroke="black" points="2434.94,-787.61 2424.68,-784.98 2431.06,-793.44 2434.94,-787.61"/>
</g>
<!-- LessDowntimeBetweenDeploys -->
<g id="node28" class="node">
<title>LessDowntimeBetweenDeploys</title>
<polygon fill="none" stroke="black" points="2922.12,-783.8 2610.62,-783.8 2610.62,-747.8 2922.12,-747.8 2922.12,-783.8"/>
<text xml:space="preserve" text-anchor="middle" x="2766.38" y="-761.13" font-family="Times,serif" font-size="14.00">Allow for less downtime between deploys</text>
</g>
<!-- Goal&#45;&gt;LessDowntimeBetweenDeploys -->
<g id="edge2" class="edge">
<title>Goal&#45;&gt;LessDowntimeBetweenDeploys</title>
<path fill="none" stroke="black" d="M2662.25,-835.75C2686.2,-819.89 2711.22,-803.33 2730.72,-790.41"/>
<polygon fill="black" stroke="black" points="2732.43,-793.47 2738.84,-785.03 2728.57,-787.64 2732.43,-793.47"/>
</g>
<!-- MakeDBFaster -->
<g id="node29" class="node">
<title>MakeDBFaster</title>
<polygon fill="none" stroke="black" points="1653.88,-783.8 1370.88,-783.8 1370.88,-747.8 1653.88,-747.8 1653.88,-783.8"/>
<text xml:space="preserve" text-anchor="middle" x="1512.38" y="-761.13" font-family="Times,serif" font-size="14.00">Make DB faster to back up and query</text>
</g>
<!-- Goal&#45;&gt;MakeDBFaster -->
<g id="edge3" class="edge">
<title>Goal&#45;&gt;MakeDBFaster</title>
<path fill="none" stroke="black" d="M2382.81,-866.55C2175.27,-842.76 1854.08,-805.96 1665.38,-784.34"/>
<polygon fill="black" stroke="black" points="1665.82,-780.86 1655.49,-783.2 1665.02,-787.82 1665.82,-780.86"/>
</g>
<!-- DeprecateGameDocument -->
<g id="node39" class="node">
<title>DeprecateGameDocument</title>
<ellipse fill="none" stroke="black" cx="3456.38" cy="-765.8" rx="189.5" ry="30.05"/>
<text xml:space="preserve" text-anchor="middle" x="3456.38" y="-769.75" font-family="Times,serif" font-size="14.00">Deprecate GameDocument entirely</text>
<text xml:space="preserve" text-anchor="middle" x="3456.38" y="-752.5" font-family="Times,serif" font-size="14.00">(storage + runtime type)</text>
</g>
<!-- Goal&#45;&gt;DeprecateGameDocument -->
<g id="edge4" class="edge">
<title>Goal&#45;&gt;DeprecateGameDocument</title>
<path fill="none" stroke="black" d="M2731.75,-847.76C2756.86,-841.78 2782.76,-836.19 2807.38,-831.85 2961.79,-804.65 3139.03,-787.84 3269.23,-778.14"/>
<polygon fill="black" stroke="black" points="3269.27,-781.65 3278.98,-777.42 3268.75,-774.67 3269.27,-781.65"/>
</g>
<!-- DBGet -->
<g id="node2" class="node">
<title>DBGet</title>
<polygon fill="none" stroke="gray" stroke-dasharray="5,2" points="1625,-487.75 1393.75,-487.75 1393.75,-451.75 1625,-451.75 1625,-487.75"/>
<text xml:space="preserve" text-anchor="middle" x="1509.38" y="-465.07" font-family="Times,serif" font-size="14.00" fill="gray">Rewrite DB Get to use sqlc ✅</text>
</g>
<!-- AddOtherTables -->
<g id="node3" class="node">
<title>AddOtherTables</title>
<polygon fill="none" stroke="gray" stroke-dasharray="5,2" points="1869.62,-36 1591.12,-36 1591.12,0 1869.62,0 1869.62,-36"/>
<text xml:space="preserve" text-anchor="middle" x="1730.38" y="-13.32" font-family="Times,serif" font-size="14.00" fill="gray">Add many2many and turns tables ✅</text>
</g>
<!-- SQLCDBStore -->
<g id="node4" class="node">
<title>SQLCDBStore</title>
<polygon fill="none" stroke="gray" stroke-dasharray="5,2" points="1461.62,-600.75 1219.12,-600.75 1219.12,-564.75 1461.62,-564.75 1461.62,-600.75"/>
<text xml:space="preserve" text-anchor="middle" x="1340.38" y="-578.08" font-family="Times,serif" font-size="14.00" fill="gray">Rewrite DB store to use sqlc ✅</text>
</g>
<!-- SQLCDBStore&#45;&gt;DBGet -->
<g id="edge26" class="edge">
<title>SQLCDBStore&#45;&gt;DBGet</title>
<path fill="none" stroke="black" d="M1366.78,-564.41C1395.47,-545.56 1441.47,-515.35 1473.44,-494.35"/>
<polygon fill="black" stroke="black" points="1475.17,-497.4 1481.61,-488.99 1471.33,-491.55 1475.17,-497.4"/>
</g>
<!-- SQLCOtherFuncs -->
<g id="node5" class="node">
<title>SQLCOtherFuncs</title>
<polygon fill="none" stroke="gray" stroke-dasharray="5,2" points="2346.88,-487.75 2099.88,-487.75 2099.88,-451.75 2346.88,-451.75 2346.88,-487.75"/>
<text xml:space="preserve" text-anchor="middle" x="2223.38" y="-465.07" font-family="Times,serif" font-size="14.00" fill="gray">Rewrite all others to use sqlc ✅</text>
</g>
<!-- SQLCDBStore&#45;&gt;SQLCOtherFuncs -->
<g id="edge27" class="edge">
<title>SQLCDBStore&#45;&gt;SQLCOtherFuncs</title>
<path fill="none" stroke="black" d="M1393.07,-564.3C1416.77,-557.07 1445.23,-549.23 1471.38,-544.25 1684.94,-503.59 1937.15,-484.77 2088.46,-476.56"/>
<polygon fill="black" stroke="black" points="2088.32,-480.07 2098.12,-476.04 2087.95,-473.08 2088.32,-480.07"/>
</g>
<!-- ConsolidateRequestColumns -->
<g id="node6" class="node">
<title>ConsolidateRequestColumns</title>
<polygon fill="none" stroke="gray" stroke-dasharray="5,2" points="1724.75,-600.75 1480,-600.75 1480,-564.75 1724.75,-564.75 1724.75,-600.75"/>
<text xml:space="preserve" text-anchor="middle" x="1602.38" y="-578.08" font-family="Times,serif" font-size="14.00" fill="gray">Consolidate request columns ✅</text>
</g>
<!-- ImproveMany2ManyTable -->
<g id="node7" class="node">
<title>ImproveMany2ManyTable</title>
<polygon fill="none" stroke="gray" stroke-dasharray="5,2" points="1844.88,-108 1615.88,-108 1615.88,-72 1844.88,-72 1844.88,-108"/>
<text xml:space="preserve" text-anchor="middle" x="1730.38" y="-85.33" font-family="Times,serif" font-size="14.00" fill="gray">Improve many2many table ✅</text>
</g>
<!-- ImproveMany2ManyTable&#45;&gt;AddOtherTables -->
<g id="edge36" class="edge">
<title>ImproveMany2ManyTable&#45;&gt;AddOtherTables</title>
<path fill="none" stroke="black" d="M1730.38,-71.7C1730.38,-64.41 1730.38,-55.73 1730.38,-47.54"/>
<polygon fill="black" stroke="black" points="1733.88,-47.62 1730.38,-37.62 1726.88,-47.62 1733.88,-47.62"/>
</g>
<!-- UseMany2ManyTable -->
<g id="node8" class="node">
<title>UseMany2ManyTable</title>
<polygon fill="none" stroke="gray" stroke-dasharray="5,2" points="1880.12,-191.88 1580.62,-191.88 1580.62,-155.88 1880.12,-155.88 1880.12,-191.88"/>
<text xml:space="preserve" text-anchor="middle" x="1730.38" y="-169.2" font-family="Times,serif" font-size="14.00" fill="gray">Transparently use many2many table ✅</text>
</g>
<!-- UseMany2ManyTable&#45;&gt;ImproveMany2ManyTable -->
<g id="edge35" class="edge">
<title>UseMany2ManyTable&#45;&gt;ImproveMany2ManyTable</title>
<path fill="none" stroke="black" d="M1730.38,-155.51C1730.38,-145.09 1730.38,-131.58 1730.38,-119.61"/>
<polygon fill="black" stroke="black" points="1733.88,-119.85 1730.38,-109.85 1726.88,-119.85 1733.88,-119.85"/>
</g>
<!-- MigrateToMany2ManyTable -->
<g id="node9" class="node">
<title>MigrateToMany2ManyTable</title>
<polygon fill="none" stroke="gray" stroke-dasharray="5,2" points="1853.12,-287.62 1607.62,-287.62 1607.62,-251.62 1853.12,-251.62 1853.12,-287.62"/>
<text xml:space="preserve" text-anchor="middle" x="1730.38" y="-264.95" font-family="Times,serif" font-size="14.00" fill="gray">Migrate to many2many table ✅</text>
</g>
<!-- MigrateToMany2ManyTable&#45;&gt;UseMany2ManyTable -->
<g id="edge34" class="edge">
<title>MigrateToMany2ManyTable&#45;&gt;UseMany2ManyTable</title>
<path fill="none" stroke="black" d="M1730.38,-251.43C1730.38,-238.03 1730.38,-219.15 1730.38,-203.48"/>
<polygon fill="black" stroke="black" points="1733.88,-203.79 1730.38,-193.79 1726.88,-203.79 1733.88,-203.79"/>
</g>
<!-- ActivateGameTurnsTable -->
<g id="node10" class="node">
<title>ActivateGameTurnsTable</title>
<polygon fill="none" stroke="gray" stroke-dasharray="5,2" points="3732.62,-290.88 3406.12,-290.88 3406.12,-248.38 3732.62,-248.38 3732.62,-290.88"/>
<text xml:space="preserve" text-anchor="middle" x="3569.38" y="-273.57" font-family="Times,serif" font-size="14.00" fill="gray">Activate game_turns table ✅</text>
<text xml:space="preserve" text-anchor="middle" x="3569.38" y="-256.32" font-family="Times,serif" font-size="14.00" fill="gray">(schema: game_uuid, turn_idx, event jsonb)</text>
</g>
<!-- DualWriteTurns -->
<g id="node11" class="node">
<title>DualWriteTurns</title>
<polygon fill="none" stroke="gray" stroke-dasharray="5,2" points="2953.88,-299.5 2628.88,-299.5 2628.88,-239.75 2953.88,-239.75 2953.88,-299.5"/>
<text xml:space="preserve" text-anchor="middle" x="2791.38" y="-282.2" font-family="Times,serif" font-size="14.00" fill="gray">Dual&#45;write turns ✅</text>
<text xml:space="preserve" text-anchor="middle" x="2791.38" y="-264.95" font-family="Times,serif" font-size="14.00" fill="gray">(INSERT game_turns + keep history bytea;</text>
<text xml:space="preserve" text-anchor="middle" x="2791.38" y="-247.7" font-family="Times,serif" font-size="14.00" fill="gray">flag: DUAL_WRITE_TURNS)</text>
</g>
<!-- SplitDBWriters -->
<g id="node12" class="node">
<title>SplitDBWriters</title>
<polygon fill="none" stroke="gray" stroke-dasharray="5,2" points="2736.25,-612.62 2428.5,-612.62 2428.5,-552.88 2736.25,-552.88 2736.25,-612.62"/>
<text xml:space="preserve" text-anchor="middle" x="2582.38" y="-595.33" font-family="Times,serif" font-size="14.00" fill="gray">Split DB writers ✅</text>
<text xml:space="preserve" text-anchor="middle" x="2582.38" y="-578.08" font-family="Times,serif" font-size="14.00" fill="gray">(AppendTurn, UpdateTimers,</text>
<text xml:space="preserve" text-anchor="middle" x="2582.38" y="-560.83" font-family="Times,serif" font-size="14.00" fill="gray">AppendMetaEvent, SetReady, EndGame)</text>
</g>
<!-- SplitDBWriters&#45;&gt;SQLCOtherFuncs -->
<g id="edge12" class="edge">
<title>SplitDBWriters&#45;&gt;SQLCOtherFuncs</title>
<path fill="none" stroke="black" d="M2487.58,-552.44C2425.65,-533.29 2346.26,-508.75 2290.75,-491.58"/>
<polygon fill="black" stroke="black" points="2292.01,-488.31 2281.42,-488.7 2289.94,-494.99 2292.01,-488.31"/>
</g>
<!-- BuildLiveStateFromTurns -->
<g id="node13" class="node">
<title>BuildLiveStateFromTurns</title>
<polygon fill="none" stroke="gray" stroke-dasharray="5,2" points="3457.62,-395.25 3131.12,-395.25 3131.12,-335.5 3457.62,-335.5 3457.62,-395.25"/>
<text xml:space="preserve" text-anchor="middle" x="3294.38" y="-377.95" font-family="Times,serif" font-size="14.00" fill="gray">Build live game state from turns ✅</text>
<text xml:space="preserve" text-anchor="middle" x="3294.38" y="-360.7" font-family="Times,serif" font-size="14.00" fill="gray">(shadow&#45;compare after AppendTurns;</text>
<text xml:space="preserve" text-anchor="middle" x="3294.38" y="-343.45" font-family="Times,serif" font-size="14.00" fill="gray">read path now uses turns for active games)</text>
</g>
<!-- AssembleHistoryFromTurns -->
<g id="node14" class="node">
<title>AssembleHistoryFromTurns</title>
<polygon fill="none" stroke="gray" stroke-dasharray="5,2" points="728.38,-203.75 388.38,-203.75 388.38,-144 728.38,-144 728.38,-203.75"/>
<text xml:space="preserve" text-anchor="middle" x="558.38" y="-186.45" font-family="Times,serif" font-size="14.00" fill="gray">Assemble GameHistory from game_turns ✅</text>
<text xml:space="preserve" text-anchor="middle" x="558.38" y="-169.2" font-family="Times,serif" font-size="14.00" fill="gray">(assembleHistory() in pkg/stores/game/s3.go;</text>
<text xml:space="preserve" text-anchor="middle" x="558.38" y="-151.95" font-family="Times,serif" font-size="14.00" fill="gray">verify via proto.Equal against history bytea)</text>
</g>
<!-- S3UploadPath -->
<g id="node15" class="node">
<title>S3UploadPath</title>
<polygon fill="none" stroke="gray" stroke-dasharray="5,2" points="1188,-203.75 746.75,-203.75 746.75,-144 1188,-144 1188,-203.75"/>
<text xml:space="preserve" text-anchor="middle" x="967.38" y="-186.45" font-family="Times,serif" font-size="14.00" fill="gray">S3 upload path ✅</text>
<text xml:space="preserve" text-anchor="middle" x="967.38" y="-169.2" font-family="Times,serif" font-size="14.00" fill="gray">(gzipped protojson, games/&lt;yyyy&gt;/&lt;mm&gt;/&lt;uuid&gt;.json.gz;</text>
<text xml:space="preserve" text-anchor="middle" x="967.38" y="-151.95" font-family="Times,serif" font-size="14.00" fill="gray">creation&#45;date partitioning; MinIO in dev)</text>
</g>
<!-- S3UrlColumnOnGames -->
<g id="node16" class="node">
<title>S3UrlColumnOnGames</title>
<polygon fill="none" stroke="gray" stroke-dasharray="5,2" points="370.75,-195.12 0,-195.12 0,-152.62 370.75,-152.62 370.75,-195.12"/>
<text xml:space="preserve" text-anchor="middle" x="185.38" y="-177.82" font-family="Times,serif" font-size="14.00" fill="gray">Add history_s3_key column to games ✅</text>
<text xml:space="preserve" text-anchor="middle" x="185.38" y="-160.57" font-family="Times,serif" font-size="14.00" fill="gray">(partial index on NULL for pending&#45;archival scan)</text>
</g>
<!-- S3ArchiveOnGameEnd -->
<g id="node17" class="node">
<title>S3ArchiveOnGameEnd</title>
<polygon fill="none" stroke="gray" stroke-dasharray="5,2" points="1200.5,-299.5 822.25,-299.5 822.25,-239.75 1200.5,-239.75 1200.5,-299.5"/>
<text xml:space="preserve" text-anchor="middle" x="1011.38" y="-282.2" font-family="Times,serif" font-size="14.00" fill="gray">Archive GameHistory to S3 on game end ✅</text>
<text xml:space="preserve" text-anchor="middle" x="1011.38" y="-264.95" font-family="Times,serif" font-size="14.00" fill="gray">(assemble → verify → upload → CommitArchival tx;</text>
<text xml:space="preserve" text-anchor="middle" x="1011.38" y="-247.7" font-family="Times,serif" font-size="14.00" fill="gray">cmd/upload&#45;game&#45;archive/ retry script)</text>
</g>
<!-- S3ArchiveOnGameEnd&#45;&gt;AssembleHistoryFromTurns -->
<g id="edge37" class="edge">
<title>S3ArchiveOnGameEnd&#45;&gt;AssembleHistoryFromTurns</title>
<path fill="none" stroke="black" d="M869.6,-239.28C819.3,-228.87 762.5,-217.12 711.32,-206.53"/>
<polygon fill="black" stroke="black" points="712.13,-203.12 701.63,-204.52 710.71,-209.98 712.13,-203.12"/>
</g>
<!-- S3ArchiveOnGameEnd&#45;&gt;S3UploadPath -->
<g id="edge38" class="edge">
<title>S3ArchiveOnGameEnd&#45;&gt;S3UploadPath</title>
<path fill="none" stroke="black" d="M997.69,-239.48C993.97,-231.54 989.87,-222.81 985.93,-214.4"/>
<polygon fill="black" stroke="black" points="989.11,-212.94 981.69,-205.38 982.77,-215.92 989.11,-212.94"/>
</g>
<!-- S3ArchiveOnGameEnd&#45;&gt;S3UrlColumnOnGames -->
<g id="edge39" class="edge">
<title>S3ArchiveOnGameEnd&#45;&gt;S3UrlColumnOnGames</title>
<path fill="none" stroke="black" d="M822.03,-251.46C696.34,-239.5 527.8,-222.4 379.38,-203.75 363.52,-201.76 346.96,-199.53 330.49,-197.21"/>
<polygon fill="black" stroke="black" points="331,-193.75 320.61,-195.81 330.02,-200.68 331,-193.75"/>
</g>
<!-- ByteaBackfill -->
<g id="node18" class="node">
<title>ByteaBackfill</title>
<polygon fill="none" stroke="gray" stroke-dasharray="5,2" points="1563,-203.75 1205.75,-203.75 1205.75,-144 1563,-144 1563,-203.75"/>
<text xml:space="preserve" text-anchor="middle" x="1384.38" y="-186.45" font-family="Times,serif" font-size="14.00" fill="gray">Bytea&#45;fed S3 backfill ✅</text>
<text xml:space="preserve" text-anchor="middle" x="1384.38" y="-169.2" font-family="Times,serif" font-size="14.00" fill="gray">(cmd/bytea&#45;backfill/; 11.3M historical games;</text>
<text xml:space="preserve" text-anchor="middle" x="1384.38" y="-151.95" font-family="Times,serif" font-size="14.00" fill="gray">parallel workers, keyset pagination, resumable)</text>
</g>
<!-- S3ArchiveOnGameEnd&#45;&gt;ByteaBackfill -->
<g id="edge40" class="edge">
<title>S3ArchiveOnGameEnd&#45;&gt;ByteaBackfill</title>
<path fill="none" stroke="black" d="M1128.12,-239.28C1168.92,-229.03 1214.93,-217.46 1256.59,-206.99"/>
<polygon fill="black" stroke="black" points="1257.33,-210.42 1266.17,-204.58 1255.62,-203.63 1257.33,-210.42"/>
</g>
<!-- OTelObservability -->
<g id="node19" class="node">
<title>OTelObservability</title>
<polygon fill="none" stroke="gray" stroke-dasharray="5,2" points="2130.38,-621.25 1742.38,-621.25 1742.38,-544.25 2130.38,-544.25 2130.38,-621.25"/>
<text xml:space="preserve" text-anchor="middle" x="1936.38" y="-603.95" font-family="Times,serif" font-size="14.00" fill="gray">OTel observability ✅</text>
<text xml:space="preserve" text-anchor="middle" x="1936.38" y="-586.7" font-family="Times,serif" font-size="14.00" fill="gray">(MeterProvider enabled; cache hit/miss counter;</text>
<text xml:space="preserve" text-anchor="middle" x="1936.38" y="-569.45" font-family="Times,serif" font-size="14.00" fill="gray">game.load.duration_ms histogram; gameplay spans;</text>
<text xml:space="preserve" text-anchor="middle" x="1936.38" y="-552.2" font-family="Times,serif" font-size="14.00" fill="gray">runtime memstats gauge)</text>
</g>
<!-- LastKnownRacksColumn -->
<g id="node20" class="node">
<title>LastKnownRacksColumn</title>
<polygon fill="none" stroke="gray" stroke-dasharray="5,2" points="3112.88,-395.25 2703.88,-395.25 2703.88,-335.5 3112.88,-335.5 3112.88,-395.25"/>
<text xml:space="preserve" text-anchor="middle" x="2908.38" y="-377.95" font-family="Times,serif" font-size="14.00" fill="gray">last_known_racks column on games ✅</text>
<text xml:space="preserve" text-anchor="middle" x="2908.38" y="-360.7" font-family="Times,serif" font-size="14.00" fill="gray">(text[]; written by Set/Create from macondo</text>
<text xml:space="preserve" text-anchor="middle" x="2908.38" y="-343.45" font-family="Times,serif" font-size="14.00" fill="gray">History().LastKnownRacks; prereq for turns read path)</text>
</g>
<!-- LastKnownRacksColumn&#45;&gt;ActivateGameTurnsTable -->
<g id="edge20" class="edge">
<title>LastKnownRacksColumn&#45;&gt;ActivateGameTurnsTable</title>
<path fill="none" stroke="black" d="M3112.99,-335.35C3209.26,-321.7 3322.27,-305.67 3411.76,-292.98"/>
<polygon fill="black" stroke="black" points="3412.2,-296.45 3421.61,-291.58 3411.22,-289.52 3412.2,-296.45"/>
</g>
<!-- LastKnownRacksColumn&#45;&gt;DualWriteTurns -->
<g id="edge21" class="edge">
<title>LastKnownRacksColumn&#45;&gt;DualWriteTurns</title>
<path fill="none" stroke="black" d="M2872,-335.23C2860.77,-326.23 2848.27,-316.21 2836.53,-306.81"/>
<polygon fill="black" stroke="black" points="2838.9,-304.22 2828.91,-300.7 2834.53,-309.69 2838.9,-304.22"/>
</g>
<!-- S3LoadPath -->
<g id="node21" class="node">
<title>S3LoadPath</title>
<polygon fill="none" stroke="gray" stroke-dasharray="5,2" points="1563.38,-395.25 1139.38,-395.25 1139.38,-335.5 1563.38,-335.5 1563.38,-395.25"/>
<text xml:space="preserve" text-anchor="middle" x="1351.38" y="-377.95" font-family="Times,serif" font-size="14.00" fill="gray">Load GameHistory from S3 ✅</text>
<text xml:space="preserve" text-anchor="middle" x="1351.38" y="-360.7" font-family="Times,serif" font-size="14.00" fill="gray">(Get + GetHistory route finished games to S3;</text>
<text xml:space="preserve" text-anchor="middle" x="1351.38" y="-343.45" font-family="Times,serif" font-size="14.00" fill="gray">bytea fallback for transition; game.load.source span attr)</text>
</g>
<!-- S3LoadPath&#45;&gt;S3ArchiveOnGameEnd -->
<g id="edge18" class="edge">
<title>S3LoadPath&#45;&gt;S3ArchiveOnGameEnd</title>
<path fill="none" stroke="black" d="M1245.2,-335.1C1208.22,-324.9 1166.53,-313.41 1128.71,-302.98"/>
<polygon fill="black" stroke="black" points="1129.66,-299.61 1119.09,-300.32 1127.79,-306.36 1129.66,-299.61"/>
</g>
<!-- S3LoadPath&#45;&gt;ByteaBackfill -->
<g id="edge19" class="edge">
<title>S3LoadPath&#45;&gt;ByteaBackfill</title>
<path fill="none" stroke="black" d="M1356.46,-335.18C1362.05,-303.05 1371.09,-251.18 1377.35,-215.19"/>
<polygon fill="black" stroke="black" points="1380.76,-216.05 1379.03,-205.59 1373.86,-214.84 1380.76,-216.05"/>
</g>
<!-- ReadPathFromTurns -->
<g id="node22" class="node">
<title>ReadPathFromTurns</title>
<polygon fill="none" stroke="gray" stroke-dasharray="5,2" points="3079.5,-508.25 2737.25,-508.25 2737.25,-431.25 3079.5,-431.25 3079.5,-508.25"/>
<text xml:space="preserve" text-anchor="middle" x="2908.38" y="-490.95" font-family="Times,serif" font-size="14.00" fill="gray">Switch read path to game_turns ✅</text>
<text xml:space="preserve" text-anchor="middle" x="2908.38" y="-473.7" font-family="Times,serif" font-size="14.00" fill="gray">(buildHistoryFromTurns in Get + GetHistory;</text>
<text xml:space="preserve" text-anchor="middle" x="2908.38" y="-456.45" font-family="Times,serif" font-size="14.00" fill="gray">active games: turns; finished games: S3;</text>
<text xml:space="preserve" text-anchor="middle" x="2908.38" y="-439.2" font-family="Times,serif" font-size="14.00" fill="gray">bytea fallback during transition)</text>
</g>
<!-- ReadPathFromTurns&#45;&gt;DualWriteTurns -->
<g id="edge15" class="edge">
<title>ReadPathFromTurns&#45;&gt;DualWriteTurns</title>
<path fill="none" stroke="black" d="M2736.87,-432.47C2720.72,-422.81 2706.33,-410.62 2695.38,-395.25 2679.96,-373.63 2682.92,-358.95 2695.38,-335.5 2701.29,-324.37 2710.05,-314.8 2719.93,-306.7"/>
<polygon fill="black" stroke="black" points="2721.77,-309.69 2727.63,-300.87 2717.55,-304.11 2721.77,-309.69"/>
</g>
<!-- ReadPathFromTurns&#45;&gt;BuildLiveStateFromTurns -->
<g id="edge16" class="edge">
<title>ReadPathFromTurns&#45;&gt;BuildLiveStateFromTurns</title>
<path fill="none" stroke="black" d="M3051.56,-430.77C3091.47,-420.19 3134.43,-408.8 3172.96,-398.58"/>
<polygon fill="black" stroke="black" points="3173.47,-402.06 3182.23,-396.12 3171.67,-395.3 3173.47,-402.06"/>
</g>
<!-- ReadPathFromTurns&#45;&gt;LastKnownRacksColumn -->
<g id="edge14" class="edge">
<title>ReadPathFromTurns&#45;&gt;LastKnownRacksColumn</title>
<path fill="none" stroke="black" d="M2908.38,-430.92C2908.38,-423.2 2908.38,-415.05 2908.38,-407.24"/>
<polygon fill="black" stroke="black" points="2911.88,-407.24 2908.38,-397.24 2904.88,-407.24 2911.88,-407.24"/>
</g>
<!-- ReadPathFromTurns&#45;&gt;S3LoadPath -->
<g id="edge17" class="edge">
<title>ReadPathFromTurns&#45;&gt;S3LoadPath</title>
<path fill="none" stroke="black" d="M2736.87,-456.21C2627.92,-448.47 2483.91,-438.64 2356.38,-431.25 2022.77,-411.92 1938.45,-422.14 1605.38,-395.25 1595.39,-394.44 1585.18,-393.55 1574.88,-392.6"/>
<polygon fill="black" stroke="black" points="1575.46,-389.14 1565.17,-391.69 1574.8,-396.11 1575.46,-389.14"/>
</g>
<!-- FixGameDocumentBugs -->
<g id="node23" class="node">
<title>FixGameDocumentBugs</title>
<polygon fill="#f0f0f0" stroke="lightgray" stroke-dasharray="5,2" points="3096.75,-911.55 2816,-911.55 2816,-869.05 3096.75,-869.05 3096.75,-911.55"/>
<text xml:space="preserve" text-anchor="middle" x="2956.38" y="-894.25" font-family="Times,serif" font-size="14.00" fill="lightgray">Fix and test GameDocument bugs ❌</text>
<text xml:space="preserve" text-anchor="middle" x="2956.38" y="-877" font-family="Times,serif" font-size="14.00" fill="lightgray">(GameDocument being retired)</text>
</g>
<!-- AddPastGamesTable -->
<g id="node24" class="node">
<title>AddPastGamesTable</title>
<polygon fill="#f0f0f0" stroke="lightgray" stroke-dasharray="5,2" points="3373.88,-911.55 3114.88,-911.55 3114.88,-869.05 3373.88,-869.05 3373.88,-911.55"/>
<text xml:space="preserve" text-anchor="middle" x="3244.38" y="-894.25" font-family="Times,serif" font-size="14.00" fill="lightgray">Add PastGames table ❌</text>
<text xml:space="preserve" text-anchor="middle" x="3244.38" y="-877" font-family="Times,serif" font-size="14.00" fill="lightgray">(superseded by S3 + game_turns)</text>
</g>
<!-- UsePastGamesTable -->
<g id="node25" class="node">
<title>UsePastGamesTable</title>
<polygon fill="#f0f0f0" stroke="lightgray" stroke-dasharray="5,2" points="3684.38,-908.3 3392.38,-908.3 3392.38,-872.3 3684.38,-872.3 3684.38,-908.3"/>
<text xml:space="preserve" text-anchor="middle" x="3538.38" y="-885.63" font-family="Times,serif" font-size="14.00" fill="lightgray">Transparently use PastGames table ❌</text>
</g>
<!-- MigrateToPastGamesTable -->
<g id="node26" class="node">
<title>MigrateToPastGamesTable</title>
<polygon fill="#f0f0f0" stroke="lightgray" stroke-dasharray="5,2" points="3940.38,-908.3 3702.38,-908.3 3702.38,-872.3 3940.38,-872.3 3940.38,-908.3"/>
<text xml:space="preserve" text-anchor="middle" x="3821.38" y="-885.63" font-family="Times,serif" font-size="14.00" fill="lightgray">Migrate to PastGames table ❌</text>
</g>
<!-- RemoveGameCache -->
<g id="node30" class="node">
<title>RemoveGameCache</title>
<polygon fill="none" stroke="black" points="2663.12,-696.5 2501.62,-696.5 2501.62,-660.5 2663.12,-660.5 2663.12,-696.5"/>
<text xml:space="preserve" text-anchor="middle" x="2582.38" y="-673.83" font-family="Times,serif" font-size="14.00">Remove game cache</text>
</g>
<!-- MoreSimultaneousGames&#45;&gt;RemoveGameCache -->
<g id="edge5" class="edge">
<title>MoreSimultaneousGames&#45;&gt;RemoveGameCache</title>
<path fill="none" stroke="black" d="M2435.26,-747.33C2463.94,-734.11 2503.54,-715.85 2534.43,-701.61"/>
<polygon fill="black" stroke="black" points="2535.55,-704.94 2543.17,-697.58 2532.62,-698.59 2535.55,-704.94"/>
</g>
<!-- LessDowntimeBetweenDeploys&#45;&gt;RemoveGameCache -->
<g id="edge6" class="edge">
<title>LessDowntimeBetweenDeploys&#45;&gt;RemoveGameCache</title>
<path fill="none" stroke="black" d="M2728.7,-747.33C2700.17,-734.11 2660.78,-715.85 2630.06,-701.61"/>
<polygon fill="black" stroke="black" points="2631.92,-698.61 2621.38,-697.58 2628.98,-704.96 2631.92,-698.61"/>
</g>
<!-- EfficientTable -->
<g id="node31" class="node">
<title>EfficientTable</title>
<polygon fill="none" stroke="black" points="1650.5,-696.5 1374.25,-696.5 1374.25,-660.5 1650.5,-660.5 1650.5,-696.5"/>
<text xml:space="preserve" text-anchor="middle" x="1512.38" y="-673.83" font-family="Times,serif" font-size="14.00">Make game DB model more efficient</text>
</g>
<!-- MakeDBFaster&#45;&gt;EfficientTable -->
<g id="edge22" class="edge">
<title>MakeDBFaster&#45;&gt;EfficientTable</title>
<path fill="none" stroke="black" d="M1512.38,-747.54C1512.38,-736.21 1512.38,-721.12 1512.38,-708.03"/>
<polygon fill="black" stroke="black" points="1515.88,-708.25 1512.38,-698.25 1508.88,-708.25 1515.88,-708.25"/>
</g>
<!-- ClearLargeFields -->
<g id="node35" class="node">
<title>ClearLargeFields</title>
<polygon fill="none" stroke="black" points="1201.25,-604 953.5,-604 953.5,-561.5 1201.25,-561.5 1201.25,-604"/>
<text xml:space="preserve" text-anchor="middle" x="1077.38" y="-586.7" font-family="Times,serif" font-size="14.00">Clear large fields in games table</text>
<text xml:space="preserve" text-anchor="middle" x="1077.38" y="-569.45" font-family="Times,serif" font-size="14.00">(history, stats, quickdata)</text>
</g>
<!-- MakeDBFaster&#45;&gt;ClearLargeFields -->
<g id="edge23" class="edge">
<title>MakeDBFaster&#45;&gt;ClearLargeFields</title>
<path fill="none" stroke="black" d="M1470.67,-747.44C1393.22,-715.21 1226.96,-646.01 1137.42,-608.74"/>
<polygon fill="black" stroke="black" points="1138.86,-605.55 1128.29,-604.94 1136.17,-612.01 1138.86,-605.55"/>
</g>
<!-- RemoveGameCache&#45;&gt;SplitDBWriters -->
<g id="edge8" class="edge">
<title>RemoveGameCache&#45;&gt;SplitDBWriters</title>
<path fill="none" stroke="black" d="M2582.38,-660.3C2582.38,-650.19 2582.38,-636.93 2582.38,-624.31"/>
<polygon fill="black" stroke="black" points="2585.88,-624.5 2582.38,-614.5 2578.88,-624.5 2585.88,-624.5"/>
</g>
<!-- RemoveGameCache&#45;&gt;OTelObservability -->
<g id="edge11" class="edge">
<title>RemoveGameCache&#45;&gt;OTelObservability</title>
<path fill="none" stroke="black" d="M2501.35,-668.6C2414.81,-658.78 2273.38,-641.83 2141.88,-621.61"/>
<polygon fill="black" stroke="black" points="2142.73,-618.2 2132.31,-620.13 2141.66,-625.12 2142.73,-618.2"/>
</g>
<!-- AdvisoryLockWriters -->
<g id="node32" class="node">
<title>AdvisoryLockWriters</title>
<polygon fill="none" stroke="black" points="2410.75,-604 2148,-604 2148,-561.5 2410.75,-561.5 2410.75,-604"/>
<text xml:space="preserve" text-anchor="middle" x="2279.38" y="-586.7" font-family="Times,serif" font-size="14.00">Replace in&#45;process locks with</text>
<text xml:space="preserve" text-anchor="middle" x="2279.38" y="-569.45" font-family="Times,serif" font-size="14.00">pg_advisory_xact_lock per write tx</text>
</g>
<!-- RemoveGameCache&#45;&gt;AdvisoryLockWriters -->
<g id="edge7" class="edge">
<title>RemoveGameCache&#45;&gt;AdvisoryLockWriters</title>
<path fill="none" stroke="black" d="M2526.09,-660.09C2478.46,-645.35 2409.71,-624.08 2356.87,-607.73"/>
<polygon fill="black" stroke="black" points="2358.22,-604.48 2347.64,-604.87 2356.16,-611.17 2358.22,-604.48"/>
</g>
<!-- CheapGameLoad -->
<g id="node33" class="node">
<title>CheapGameLoad</title>
<polygon fill="none" stroke="black" points="3276,-604 3032.75,-604 3032.75,-561.5 3276,-561.5 3276,-604"/>
<text xml:space="preserve" text-anchor="middle" x="3154.38" y="-586.7" font-family="Times,serif" font-size="14.00">Cheap per&#45;move game load</text>
<text xml:space="preserve" text-anchor="middle" x="3154.38" y="-569.45" font-family="Times,serif" font-size="14.00">(no full&#45;history replay per node)</text>
</g>
<!-- RemoveGameCache&#45;&gt;CheapGameLoad -->
<g id="edge9" class="edge">
<title>RemoveGameCache&#45;&gt;CheapGameLoad</title>
<path fill="none" stroke="black" d="M2663.45,-670.88C2752.38,-662.76 2899.01,-646.83 3023.38,-621.25 3041.41,-617.54 3060.59,-612.62 3078.55,-607.57"/>
<polygon fill="black" stroke="black" points="3079.45,-610.95 3088.1,-604.83 3077.53,-604.22 3079.45,-610.95"/>
</g>
<!-- GracefulCacheDrain -->
<g id="node34" class="node">
<title>GracefulCacheDrain</title>
<polygon fill="none" stroke="black" points="3014.62,-604 2754.12,-604 2754.12,-561.5 3014.62,-561.5 3014.62,-604"/>
<text xml:space="preserve" text-anchor="middle" x="2884.38" y="-586.7" font-family="Times,serif" font-size="14.00">Graceful cache drain on SIGTERM</text>
<text xml:space="preserve" text-anchor="middle" x="2884.38" y="-569.45" font-family="Times,serif" font-size="14.00">(refuse new moves; let txs drain)</text>
</g>
<!-- RemoveGameCache&#45;&gt;GracefulCacheDrain -->
<g id="edge10" class="edge">
<title>RemoveGameCache&#45;&gt;GracefulCacheDrain</title>
<path fill="none" stroke="black" d="M2638.47,-660.09C2685.85,-645.38 2754.19,-624.16 2806.8,-607.83"/>
<polygon fill="black" stroke="black" points="2807.82,-611.18 2816.33,-604.87 2805.75,-604.49 2807.82,-611.18"/>
</g>
<!-- EfficientTable&#45;&gt;SQLCDBStore -->
<g id="edge25" class="edge">
<title>EfficientTable&#45;&gt;SQLCDBStore</title>
<path fill="none" stroke="black" d="M1480.43,-660.09C1452.76,-645 1412.54,-623.08 1382.29,-606.59"/>
<polygon fill="black" stroke="black" points="1384.23,-603.67 1373.77,-601.95 1380.88,-609.81 1384.23,-603.67"/>
</g>
<!-- EfficientTable&#45;&gt;ConsolidateRequestColumns -->
<g id="edge24" class="edge">
<title>EfficientTable&#45;&gt;ConsolidateRequestColumns</title>
<path fill="none" stroke="black" d="M1528.88,-660.3C1542.62,-645.99 1562.39,-625.4 1577.96,-609.18"/>
<polygon fill="black" stroke="black" points="1580.22,-611.88 1584.62,-602.25 1575.17,-607.04 1580.22,-611.88"/>
</g>
<!-- CheapGameLoad&#45;&gt;ReadPathFromTurns -->
<g id="edge13" class="edge">
<title>CheapGameLoad&#45;&gt;ReadPathFromTurns</title>
<path fill="none" stroke="black" d="M3108.39,-561C3078.65,-547.58 3038.85,-529.62 3002.59,-513.26"/>
<polygon fill="black" stroke="black" points="3004.4,-510.24 2993.84,-509.31 3001.52,-516.62 3004.4,-510.24"/>
</g>
<!-- MigrateStatsToClickhouse -->
<g id="node36" class="node">
<title>MigrateStatsToClickhouse</title>
<polygon fill="none" stroke="black" points="1088.62,-499.62 738.12,-499.62 738.12,-439.88 1088.62,-439.88 1088.62,-499.62"/>
<text xml:space="preserve" text-anchor="middle" x="913.38" y="-482.32" font-family="Times,serif" font-size="14.00">Migrate game stats to ClickHouse</text>
<text xml:space="preserve" text-anchor="middle" x="913.38" y="-465.07" font-family="Times,serif" font-size="14.00">(replaces liststats + games.stats;</text>
<text xml:space="preserve" text-anchor="middle" x="913.38" y="-447.82" font-family="Times,serif" font-size="14.00">reads assembled GameHistory at end&#45;of&#45;game)</text>
</g>
<!-- ClearLargeFields&#45;&gt;MigrateStatsToClickhouse -->
<g id="edge29" class="edge">
<title>ClearLargeFields&#45;&gt;MigrateStatsToClickhouse</title>
<path fill="none" stroke="black" d="M1046.91,-561.13C1024.21,-545.76 992.64,-524.4 965.9,-506.3"/>
<polygon fill="black" stroke="black" points="968.16,-503.6 957.91,-500.9 964.23,-509.4 968.16,-503.6"/>
</g>
<!-- OnlyUseNewStorage -->
<g id="node37" class="node">
<title>OnlyUseNewStorage</title>
<polygon fill="none" stroke="black" points="1376.12,-491 1106.62,-491 1106.62,-448.5 1376.12,-448.5 1376.12,-491"/>
<text xml:space="preserve" text-anchor="middle" x="1241.38" y="-473.7" font-family="Times,serif" font-size="14.00">Only use new storage</text>
<text xml:space="preserve" text-anchor="middle" x="1241.38" y="-456.45" font-family="Times,serif" font-size="14.00">(game_turns + S3 + game_players)</text>
</g>
<!-- ClearLargeFields&#45;&gt;OnlyUseNewStorage -->
<g id="edge28" class="edge">
<title>ClearLargeFields&#45;&gt;OnlyUseNewStorage</title>
<path fill="none" stroke="black" d="M1107.84,-561.13C1134.22,-543.28 1172.57,-517.32 1201.41,-497.8"/>
<polygon fill="black" stroke="black" points="1203.22,-500.8 1209.54,-492.29 1199.3,-495 1203.22,-500.8"/>
</g>
<!-- OnlyUseNewStorage&#45;&gt;S3ArchiveOnGameEnd -->
<g id="edge31" class="edge">
<title>OnlyUseNewStorage&#45;&gt;S3ArchiveOnGameEnd</title>
<path fill="none" stroke="black" d="M1205.96,-448.12C1183.43,-434.33 1154.13,-415.12 1130.38,-395.25 1098.53,-368.6 1066.23,-334.21 1043.33,-308.31"/>
<polygon fill="black" stroke="black" points="1046.16,-306.23 1036.94,-301.01 1040.9,-310.84 1046.16,-306.23"/>
</g>
<!-- OnlyUseNewStorage&#45;&gt;S3LoadPath -->
<g id="edge32" class="edge">
<title>OnlyUseNewStorage&#45;&gt;S3LoadPath</title>
<path fill="none" stroke="black" d="M1263.64,-448.03C1277.43,-435.2 1295.54,-418.34 1311.72,-403.28"/>
<polygon fill="black" stroke="black" points="1313.93,-406 1318.87,-396.63 1309.16,-400.88 1313.93,-406"/>
</g>
<!-- ReplaceQuickData -->
<g id="node38" class="node">
<title>ReplaceQuickData</title>
<polygon fill="none" stroke="black" points="1846.75,-386.62 1614,-386.62 1614,-344.12 1846.75,-344.12 1846.75,-386.62"/>
<text xml:space="preserve" text-anchor="middle" x="1730.38" y="-369.32" font-family="Times,serif" font-size="14.00">Replace QuickData with JOINs</text>
<text xml:space="preserve" text-anchor="middle" x="1730.38" y="-352.07" font-family="Times,serif" font-size="14.00">(game_players + users)</text>
</g>
<!-- OnlyUseNewStorage&#45;&gt;ReplaceQuickData -->
<g id="edge30" class="edge">
<title>OnlyUseNewStorage&#45;&gt;ReplaceQuickData</title>
<path fill="none" stroke="black" d="M1316.09,-448.09C1338.01,-442.31 1362.09,-436.26 1384.38,-431.25 1406.2,-426.35 1516.21,-405.84 1606.41,-389.17"/>
<polygon fill="black" stroke="black" points="1606.9,-392.64 1616.1,-387.38 1605.63,-385.76 1606.9,-392.64"/>
</g>
<!-- ReplaceQuickData&#45;&gt;MigrateToMany2ManyTable -->
<g id="edge33" class="edge">
<title>ReplaceQuickData&#45;&gt;MigrateToMany2ManyTable</title>
<path fill="none" stroke="black" d="M1730.38,-344.03C1730.38,-330.99 1730.38,-313.86 1730.38,-299.43"/>
<polygon fill="black" stroke="black" points="1733.88,-299.61 1730.38,-289.61 1726.88,-299.61 1733.88,-299.61"/>
</g>
<!-- MoveGameHistoryProto -->
<g id="node40" class="node">
<title>MoveGameHistoryProto</title>
<polygon fill="none" stroke="black" points="4541.38,-699.75 4255.38,-699.75 4255.38,-657.25 4541.38,-657.25 4541.38,-699.75"/>
<text xml:space="preserve" text-anchor="middle" x="4398.38" y="-682.45" font-family="Times,serif" font-size="14.00">Move GameHistory proto into liwords</text>
<text xml:space="preserve" text-anchor="middle" x="4398.38" y="-665.2" font-family="Times,serif" font-size="14.00">(api/proto/ipc/game_history.proto)</text>
</g>
<!-- DeprecateGameDocument&#45;&gt;MoveGameHistoryProto -->
<g id="edge41" class="edge">
<title>DeprecateGameDocument&#45;&gt;MoveGameHistoryProto</title>
<path fill="none" stroke="black" d="M3628.83,-753.11C3786.29,-741.85 4025.77,-723.26 4243.84,-700"/>
<polygon fill="black" stroke="black" points="4244.12,-703.49 4253.69,-698.94 4243.37,-696.53 4244.12,-703.49"/>
</g>
<!-- PortMacondoReferee -->
<g id="node42" class="node">
<title>PortMacondoReferee</title>
<polygon fill="none" stroke="black" points="3686.25,-499.62 3426.5,-499.62 3426.5,-439.88 3686.25,-439.88 3686.25,-499.62"/>
<text xml:space="preserve" text-anchor="middle" x="3556.38" y="-482.32" font-family="Times,serif" font-size="14.00">Port macondo referee into liwords</text>
<text xml:space="preserve" text-anchor="middle" x="3556.38" y="-465.07" font-family="Times,serif" font-size="14.00">(pkg/game/: validation, scoring,</text>
<text xml:space="preserve" text-anchor="middle" x="3556.38" y="-447.82" font-family="Times,serif" font-size="14.00">challenge, end&#45;game — NOT AI)</text>
</g>
<!-- DeprecateGameDocument&#45;&gt;PortMacondoReferee -->
<g id="edge42" class="edge">
<title>DeprecateGameDocument&#45;&gt;PortMacondoReferee</title>
<path fill="none" stroke="black" d="M3416.95,-736.27C3362.3,-693.21 3275.39,-609.7 3323.38,-544.25 3345.36,-514.26 3379.62,-496.19 3415.17,-485.39"/>
<polygon fill="black" stroke="black" points="3416.1,-488.77 3424.77,-482.68 3414.2,-482.03 3416.1,-488.77"/>
</g>
<!-- MigrateNativeGamesToPkgGame -->
<g id="node44" class="node">
<title>MigrateNativeGamesToPkgGame</title>
<polygon fill="none" stroke="black" points="3724.25,-604 3332.5,-604 3332.5,-561.5 3724.25,-561.5 3724.25,-604"/>
<text xml:space="preserve" text-anchor="middle" x="3528.38" y="-586.7" font-family="Times,serif" font-size="14.00">Migrate native game path to pkg/game</text>
<text xml:space="preserve" text-anchor="middle" x="3528.38" y="-569.45" font-family="Times,serif" font-size="14.00">(entity.Game stops embedding macondogame.Game)</text>
</g>
<!-- DeprecateGameDocument&#45;&gt;MigrateNativeGamesToPkgGame -->
<g id="edge43" class="edge">
<title>DeprecateGameDocument&#45;&gt;MigrateNativeGamesToPkgGame</title>
<path fill="none" stroke="black" d="M3425.81,-736.04C3406.35,-714.11 3387.39,-683.34 3402.38,-657.25 3414.41,-636.3 3434.97,-620.76 3456.03,-609.5"/>
<polygon fill="black" stroke="black" points="3457.33,-612.77 3464.69,-605.15 3454.18,-606.51 3457.33,-612.77"/>
</g>
<!-- MigrateAnnotatorToPkgGame -->
<g id="node45" class="node">
<title>MigrateAnnotatorToPkgGame</title>
<polygon fill="none" stroke="black" points="4088,-604 3742.75,-604 3742.75,-561.5 4088,-561.5 4088,-604"/>
<text xml:space="preserve" text-anchor="middle" x="3915.38" y="-586.7" font-family="Times,serif" font-size="14.00">Migrate annotator to pkg/game + game_turns</text>
<text xml:space="preserve" text-anchor="middle" x="3915.38" y="-569.45" font-family="Times,serif" font-size="14.00">(pkg/omgwords/* rewritten)</text>
</g>
<!-- DeprecateGameDocument&#45;&gt;MigrateAnnotatorToPkgGame -->
<g id="edge44" class="edge">
<title>DeprecateGameDocument&#45;&gt;MigrateAnnotatorToPkgGame</title>
<path fill="none" stroke="black" d="M3640.93,-758.54C3743.71,-751.09 3858.11,-734.89 3894.38,-699.75 3916.55,-678.26 3919.88,-641.8 3918.88,-615.49"/>
<polygon fill="black" stroke="black" points="3922.38,-615.47 3918.26,-605.71 3915.4,-615.92 3922.38,-615.47"/>
</g>
<!-- RemoveMacondoRuntimeDep -->
<g id="node48" class="node">
<title>RemoveMacondoRuntimeDep</title>
<polygon fill="none" stroke="black" points="3647.62,-699.75 3411.12,-699.75 3411.12,-657.25 3647.62,-657.25 3647.62,-699.75"/>
<text xml:space="preserve" text-anchor="middle" x="3529.38" y="-682.45" font-family="Times,serif" font-size="14.00">Remove macondo from go.mod</text>
<text xml:space="preserve" text-anchor="middle" x="3529.38" y="-665.2" font-family="Times,serif" font-size="14.00">(puzzles/memento deferred)</text>
</g>
<!-- DeprecateGameDocument&#45;&gt;RemoveMacondoRuntimeDep -->
<g id="edge45" class="edge">
<title>DeprecateGameDocument&#45;&gt;RemoveMacondoRuntimeDep</title>
<path fill="none" stroke="black" d="M3481.09,-735.92C3488.66,-727.08 3496.99,-717.35 3504.56,-708.49"/>
<polygon fill="black" stroke="black" points="3507,-711.02 3510.85,-701.15 3501.69,-706.47 3507,-711.02"/>
</g>
<!-- UpdateGoImports -->
<g id="node41" class="node">
<title>UpdateGoImports</title>
<polygon fill="none" stroke="black" points="4496.75,-787.05 4300,-787.05 4300,-744.55 4496.75,-744.55 4496.75,-787.05"/>
<text xml:space="preserve" text-anchor="middle" x="4398.38" y="-769.75" font-family="Times,serif" font-size="14.00">Update all Go imports to</text>
<text xml:space="preserve" text-anchor="middle" x="4398.38" y="-752.5" font-family="Times,serif" font-size="14.00">use liwords GameHistory</text>
</g>
<!-- UpdateGoImports&#45;&gt;MoveGameHistoryProto -->
<g id="edge46" class="edge">
<title>UpdateGoImports&#45;&gt;MoveGameHistoryProto</title>
<path fill="none" stroke="black" d="M4398.38,-744.15C4398.38,-734.3 4398.38,-722.3 4398.38,-711.32"/>
<polygon fill="black" stroke="black" points="4401.88,-711.47 4398.38,-701.47 4394.88,-711.47 4401.88,-711.47"/>
</g>
<!-- AuditRefereeGap -->
<g id="node43" class="node">
<title>AuditRefereeGap</title>
<polygon fill="none" stroke="black" points="3748.62,-395.25 3476.12,-395.25 3476.12,-335.5 3748.62,-335.5 3748.62,-395.25"/>
<text xml:space="preserve" text-anchor="middle" x="3612.38" y="-377.95" font-family="Times,serif" font-size="14.00">Audit referee gap:</text>
<text xml:space="preserve" text-anchor="middle" x="3612.38" y="-360.7" font-family="Times,serif" font-size="14.00">list macondo/game methods needed</text>
<text xml:space="preserve" text-anchor="middle" x="3612.38" y="-343.45" font-family="Times,serif" font-size="14.00">(timebox this)</text>
</g>
<!-- PortMacondoReferee&#45;&gt;AuditRefereeGap -->
<g id="edge47" class="edge">
<title>PortMacondoReferee&#45;&gt;AuditRefereeGap</title>
<path fill="none" stroke="black" d="M3572.42,-439.41C3578.16,-428.92 3584.73,-416.91 3590.86,-405.71"/>
<polygon fill="black" stroke="black" points="3593.87,-407.5 3595.6,-397.04 3587.73,-404.14 3593.87,-407.5"/>
</g>
<!-- MigrateNativeGamesToPkgGame&#45;&gt;PortMacondoReferee -->
<g id="edge48" class="edge">
<title>MigrateNativeGamesToPkgGame&#45;&gt;PortMacondoReferee</title>
<path fill="none" stroke="black" d="M3533.58,-561.13C3537.13,-547.04 3541.96,-527.9 3546.26,-510.87"/>
<polygon fill="black" stroke="black" points="3549.56,-512.07 3548.61,-501.51 3542.77,-510.35 3549.56,-512.07"/>
</g>
<!-- MigrateAnnotatorToPkgGame&#45;&gt;ActivateGameTurnsTable -->
<g id="edge50" class="edge">
<title>MigrateAnnotatorToPkgGame&#45;&gt;ActivateGameTurnsTable</title>
<path fill="none" stroke="black" d="M3907.74,-561.27C3889.26,-514.42 3837.64,-398.61 3757.38,-335.5 3734.61,-317.6 3706.59,-304.47 3679.19,-294.9"/>
<polygon fill="black" stroke="black" points="3680.35,-291.6 3669.76,-291.75 3678.14,-298.24 3680.35,-291.6"/>
</g>
<!-- MigrateAnnotatorToPkgGame&#45;&gt;PortMacondoReferee -->
<g id="edge49" class="edge">
<title>MigrateAnnotatorToPkgGame&#45;&gt;PortMacondoReferee</title>
<path fill="none" stroke="black" d="M3848.27,-561C3795.91,-544.81 3722.2,-522.02 3661.95,-503.39"/>
<polygon fill="black" stroke="black" points="3663.28,-500.14 3652.69,-500.53 3661.21,-506.83 3663.28,-500.14"/>
</g>
<!-- DropGameDocumentsTable -->
<g id="node46" class="node">
<title>DropGameDocumentsTable</title>
<polygon fill="none" stroke="black" points="3885.38,-696.5 3665.38,-696.5 3665.38,-660.5 3885.38,-660.5 3885.38,-696.5"/>
<text xml:space="preserve" text-anchor="middle" x="3775.38" y="-673.83" font-family="Times,serif" font-size="14.00">Drop game_documents table</text>
</g>
<!-- DropGameDocumentsTable&#45;&gt;MigrateAnnotatorToPkgGame -->
<g id="edge51" class="edge">
<title>DropGameDocumentsTable&#45;&gt;MigrateAnnotatorToPkgGame</title>
<path fill="none" stroke="black" d="M3801.38,-660.09C3822.09,-646.22 3851.44,-626.56 3875.18,-610.67"/>
<polygon fill="black" stroke="black" points="3877.01,-613.65 3883.37,-605.18 3873.11,-607.84 3877.01,-613.65"/>
</g>
<!-- RetireCwgame -->
<g id="node47" class="node">
<title>RetireCwgame</title>
<polygon fill="none" stroke="black" points="4237.25,-699.75 3941.5,-699.75 3941.5,-657.25 4237.25,-657.25 4237.25,-699.75"/>
<text xml:space="preserve" text-anchor="middle" x="4089.38" y="-682.45" font-family="Times,serif" font-size="14.00">Retire pkg/cwgame/*</text>
<text xml:space="preserve" text-anchor="middle" x="4089.38" y="-665.2" font-family="Times,serif" font-size="14.00">(move GCG/CGP to pkg/game/formats/)</text>
</g>
<!-- RetireCwgame&#45;&gt;MigrateAnnotatorToPkgGame -->
<g id="edge52" class="edge">
<title>RetireCwgame&#45;&gt;MigrateAnnotatorToPkgGame</title>
<path fill="none" stroke="black" d="M4051.19,-656.93C4025.44,-643.05 3991.26,-624.63 3963.63,-609.75"/>
<polygon fill="black" stroke="black" points="3965.57,-606.82 3955.1,-605.16 3962.25,-612.98 3965.57,-606.82"/>
</g>
<!-- RemoveMacondoRuntimeDep&#45;&gt;MigrateNativeGamesToPkgGame -->
<g id="edge53" class="edge">
<title>RemoveMacondoRuntimeDep&#45;&gt;MigrateNativeGamesToPkgGame</title>
<path fill="none" stroke="black" d="M3529.16,-657.16C3529.03,-645.08 3528.86,-629.49 3528.72,-615.8"/>
<polygon fill="black" stroke="black" points="3532.22,-615.85 3528.61,-605.89 3525.22,-615.93 3532.22,-615.85"/>
</g>
<!-- RemoveMacondoRuntimeDep&#45;&gt;MigrateAnnotatorToPkgGame -->
<g id="edge54" class="edge">
<title>RemoveMacondoRuntimeDep&#45;&gt;MigrateAnnotatorToPkgGame</title>
<path fill="none" stroke="black" d="M3614.56,-656.81C3674.99,-642.13 3756.17,-622.42 3818.97,-607.16"/>
<polygon fill="black" stroke="black" points="3819.71,-610.59 3828.6,-604.83 3818.06,-603.78 3819.71,-610.59"/>
</g>
</g>
</svg>
