<?xml version="1.0" encoding="UTF-8" standalone="no"?>
<!DOCTYPE svg PUBLIC "-//W3C//DTD SVG 1.1//EN"
 "http://www.w3.org/Graphics/SVG/1.1/DTD/svg11.dtd">
<!-- Generated by graphviz version 14.1.5 (0)
 -->
<!-- Title: RedoGameModel Pages: 1 -->
<svg width="4249pt" height="826pt"
 viewBox="0.00 0.00 4249.00 826.00" xmlns="http://www.w3.org/2000/svg" xmlns:xlink="http://www.w3.org/1999/xlink">
<g id="graph0" class="graph" transform="scale(1 1) rotate(0) translate(4 822.5)">
<title>RedoGameModel</title>
<polygon fill="white" stroke="none" points="-4,4 -4,-822.5 4244.5,-822.5 4244.5,4 -4,4"/>
<!-- Goal -->
<g id="node1" class="node">
<title>Goal</title>
<ellipse fill="none" stroke="black" stroke-width="2" cx="2255.62" cy="-760.05" rx="212.84" ry="54.45"/>
<ellipse fill="none" stroke="black" stroke-width="2" cx="2255.62" cy="-760.05" rx="216.84" ry="58.45"/>
<text xml:space="preserve" text-anchor="middle" x="2255.62" y="-781.25" font-family="Times,serif" font-size="14.00">Redo game model to support</text>
<text xml:space="preserve" text-anchor="middle" x="2255.62" y="-764" font-family="Times,serif" font-size="14.00">1) more simultaneous games</text>
<text xml:space="preserve" text-anchor="middle" x="2255.62" y="-746.75" font-family="Times,serif" font-size="14.00">2) less downtime between deploys</text>
<text xml:space="preserve" text-anchor="middle" x="2255.62" y="-729.5" font-family="Times,serif" font-size="14.00">3) make DB faster to back up and query</text>
</g>
<!-- MoreSimultaneousGames -->
<g id="node23" class="node">
<title>MoreSimultaneousGames</title>
<polygon fill="none" stroke="black" points="2636.12,-653.55 2245.12,-653.55 2245.12,-617.55 2636.12,-617.55 2636.12,-653.55"/>
<text xml:space="preserve" text-anchor="middle" x="2440.62" y="-630.88" font-family="Times,serif" font-size="14.00">Allow for more simultaneous games than cache limit</text>
</g>
<!-- Goal&#45;&gt;MoreSimultaneousGames -->
<g id="edge1" class="edge">
<title>Goal&#45;&gt;MoreSimultaneousGames</title>
<path fill="none" stroke="black" d="M2336.5,-705.5C2360.45,-689.64 2385.47,-673.08 2404.97,-660.16"/>
<polygon fill="black" stroke="black" points="2406.68,-663.22 2413.09,-654.78 2402.82,-657.39 2406.68,-663.22"/>
</g>
<!-- LessDowntimeBetweenDeploys -->
<g id="node24" class="node">
<title>LessDowntimeBetweenDeploys</title>
<polygon fill="none" stroke="black" points="2227.38,-653.55 1915.88,-653.55 1915.88,-617.55 2227.38,-617.55 2227.38,-653.55"/>
<text xml:space="preserve" text-anchor="middle" x="2071.62" y="-630.88" font-family="Times,serif" font-size="14.00">Allow for less downtime between deploys</text>
</g>
<!-- Goal&#45;&gt;LessDowntimeBetweenDeploys -->
<g id="edge2" class="edge">
<title>Goal&#45;&gt;LessDowntimeBetweenDeploys</title>
<path fill="none" stroke="black" d="M2174.92,-705.32C2151.24,-689.56 2126.54,-673.11 2107.24,-660.26"/>
<polygon fill="black" stroke="black" points="2109.19,-657.36 2098.93,-654.73 2105.31,-663.19 2109.19,-657.36"/>
</g>
<!-- MakeDBFaster -->
<g id="node25" class="node">
<title>MakeDBFaster</title>
<polygon fill="none" stroke="black" points="1823.12,-653.55 1540.12,-653.55 1540.12,-617.55 1823.12,-617.55 1823.12,-653.55"/>
<text xml:space="preserve" text-anchor="middle" x="1681.62" y="-630.88" font-family="Times,serif" font-size="14.00">Make DB faster to back up and query</text>
</g>
<!-- Goal&#45;&gt;MakeDBFaster -->
<g id="edge3" class="edge">
<title>Goal&#45;&gt;MakeDBFaster</title>
<path fill="none" stroke="black" d="M2086.9,-723.04C1984.81,-701.26 1858.53,-674.31 1774.33,-656.34"/>
<polygon fill="black" stroke="black" points="1775.24,-652.95 1764.72,-654.29 1773.77,-659.8 1775.24,-652.95"/>
</g>
<!-- DeprecateGameDocument -->
<g id="node37" class="node">
<title>DeprecateGameDocument</title>
<ellipse fill="none" stroke="black" cx="3155.62" cy="-635.55" rx="189.5" ry="30.05"/>
<text xml:space="preserve" text-anchor="middle" x="3155.62" y="-639.5" font-family="Times,serif" font-size="14.00">Deprecate GameDocument entirely</text>
<text xml:space="preserve" text-anchor="middle" x="3155.62" y="-622.25" font-family="Times,serif" font-size="14.00">(storage + runtime type)</text>
</g>
<!-- Goal&#45;&gt;DeprecateGameDocument -->
<g id="edge4" class="edge">
<title>Goal&#45;&gt;DeprecateGameDocument</title>
<path fill="none" stroke="black" d="M2405.68,-717.51C2430.89,-711.51 2456.9,-705.91 2481.62,-701.6 2644.12,-673.28 2830.95,-656.46 2966.63,-647.05"/>
<polygon fill="black" stroke="black" points="2966.71,-650.55 2976.45,-646.38 2966.23,-643.57 2966.71,-650.55"/>
</g>
<!-- DBGet -->
<g id="node2" class="node">
<title>DBGet</title>
<polygon fill="none" stroke="gray" stroke-dasharray="5,2" points="1844.25,-383.38 1613,-383.38 1613,-347.38 1844.25,-347.38 1844.25,-383.38"/>
<text xml:space="preserve" text-anchor="middle" x="1728.62" y="-360.7" font-family="Times,serif" font-size="14.00" fill="gray">Rewrite DB Get to use sqlc ✅</text>
</g>
<!-- AddOtherTables -->
<g id="node3" class="node">
<title>AddOtherTables</title>
<polygon fill="none" stroke="gray" stroke-dasharray="5,2" points="1869.88,-36 1591.38,-36 1591.38,0 1869.88,0 1869.88,-36"/>
<text xml:space="preserve" text-anchor="middle" x="1730.62" y="-13.32" font-family="Times,serif" font-size="14.00" fill="gray">Add many2many and turns tables ✅</text>
</g>
<!-- SQLCDBStore -->
<g id="node4" class="node">
<title>SQLCDBStore</title>
<polygon fill="none" stroke="gray" stroke-dasharray="5,2" points="1849.88,-479.12 1607.38,-479.12 1607.38,-443.12 1849.88,-443.12 1849.88,-479.12"/>
<text xml:space="preserve" text-anchor="middle" x="1728.62" y="-456.45" font-family="Times,serif" font-size="14.00" fill="gray">Rewrite DB store to use sqlc ✅</text>
</g>
<!-- SQLCDBStore&#45;&gt;DBGet -->
<g id="edge20" class="edge">
<title>SQLCDBStore&#45;&gt;DBGet</title>
<path fill="none" stroke="black" d="M1728.62,-442.93C1728.62,-429.53 1728.62,-410.65 1728.62,-394.98"/>
<polygon fill="black" stroke="black" points="1732.13,-395.29 1728.63,-385.29 1725.13,-395.29 1732.13,-395.29"/>
</g>
<!-- SQLCOtherFuncs -->
<g id="node5" class="node">
<title>SQLCOtherFuncs</title>
<polygon fill="none" stroke="gray" stroke-dasharray="5,2" points="2267.12,-383.38 2020.12,-383.38 2020.12,-347.38 2267.12,-347.38 2267.12,-383.38"/>
<text xml:space="preserve" text-anchor="middle" x="2143.62" y="-360.7" font-family="Times,serif" font-size="14.00" fill="gray">Rewrite all others to use sqlc ✅</text>
</g>
<!-- SQLCDBStore&#45;&gt;SQLCOtherFuncs -->
<g id="edge21" class="edge">
<title>SQLCDBStore&#45;&gt;SQLCOtherFuncs</title>
<path fill="none" stroke="black" d="M1805.71,-442.71C1876.39,-426.74 1981.01,-403.11 2055.09,-386.38"/>
<polygon fill="black" stroke="black" points="2055.79,-389.81 2064.77,-384.19 2054.25,-382.98 2055.79,-389.81"/>
</g>
<!-- ConsolidateRequestColumns -->
<g id="node6" class="node">
<title>ConsolidateRequestColumns</title>
<polygon fill="none" stroke="gray" stroke-dasharray="5,2" points="1589,-479.12 1344.25,-479.12 1344.25,-443.12 1589,-443.12 1589,-479.12"/>
<text xml:space="preserve" text-anchor="middle" x="1466.62" y="-456.45" font-family="Times,serif" font-size="14.00" fill="gray">Consolidate request columns ✅</text>
</g>
<!-- ImproveMany2ManyTable -->
<g id="node7" class="node">
<title>ImproveMany2ManyTable</title>
<polygon fill="none" stroke="gray" stroke-dasharray="5,2" points="1845.12,-108 1616.12,-108 1616.12,-72 1845.12,-72 1845.12,-108"/>
<text xml:space="preserve" text-anchor="middle" x="1730.62" y="-85.33" font-family="Times,serif" font-size="14.00" fill="gray">Improve many2many table ✅</text>
</g>
<!-- ImproveMany2ManyTable&#45;&gt;AddOtherTables -->
<g id="edge30" class="edge">
<title>ImproveMany2ManyTable&#45;&gt;AddOtherTables</title>
<path fill="none" stroke="black" d="M1730.62,-71.7C1730.62,-64.41 1730.62,-55.73 1730.62,-47.54"/>
<polygon fill="black" stroke="black" points="1734.13,-47.62 1730.63,-37.62 1727.13,-47.62 1734.13,-47.62"/>
</g>
<!-- UseMany2ManyTable -->
<g id="node8" class="node">
<title>UseMany2ManyTable</title>
<polygon fill="none" stroke="gray" stroke-dasharray="5,2" points="1880.38,-191.88 1580.88,-191.88 1580.88,-155.88 1880.38,-155.88 1880.38,-191.88"/>
<text xml:space="preserve" text-anchor="middle" x="1730.62" y="-169.2" font-family="Times,serif" font-size="14.00" fill="gray">Transparently use many2many table ✅</text>
</g>
<!-- UseMany2ManyTable&#45;&gt;ImproveMany2ManyTable -->
<g id="edge29" class="edge">
<title>UseMany2ManyTable&#45;&gt;ImproveMany2ManyTable</title>
<path fill="none" stroke="black" d="M1730.62,-155.51C1730.62,-145.09 1730.62,-131.58 1730.62,-119.61"/>
<polygon fill="black" stroke="black" points="1734.13,-119.85 1730.63,-109.85 1727.13,-119.85 1734.13,-119.85"/>
</g>
<!-- MigrateToMany2ManyTable -->
<g id="node9" class="node">
<title>MigrateToMany2ManyTable</title>
<polygon fill="none" stroke="gray" stroke-dasharray="5,2" points="1596.38,-287.62 1350.88,-287.62 1350.88,-251.62 1596.38,-251.62 1596.38,-287.62"/>
<text xml:space="preserve" text-anchor="middle" x="1473.62" y="-264.95" font-family="Times,serif" font-size="14.00" fill="gray">Migrate to many2many table ✅</text>
</g>
<!-- MigrateToMany2ManyTable&#45;&gt;UseMany2ManyTable -->
<g id="edge28" class="edge">
<title>MigrateToMany2ManyTable&#45;&gt;UseMany2ManyTable</title>
<path fill="none" stroke="black" d="M1521.36,-251.21C1563.96,-235.67 1626.48,-212.87 1672.08,-196.23"/>
<polygon fill="black" stroke="black" points="1673.09,-199.59 1681.29,-192.87 1670.69,-193.01 1673.09,-199.59"/>
</g>
<!-- ActivateGameTurnsTable -->
<g id="node10" class="node">
<title>ActivateGameTurnsTable</title>
<polygon fill="none" stroke="gray" stroke-dasharray="5,2" points="3502.88,-195.12 3176.38,-195.12 3176.38,-152.62 3502.88,-152.62 3502.88,-195.12"/>
<text xml:space="preserve" text-anchor="middle" x="3339.62" y="-177.82" font-family="Times,serif" font-size="14.00" fill="gray">Activate game_turns table ✅</text>
<text xml:space="preserve" text-anchor="middle" x="3339.62" y="-160.57" font-family="Times,serif" font-size="14.00" fill="gray">(schema: game_uuid, turn_idx, event jsonb)</text>
</g>
<!-- DualWriteTurns -->
<g id="node11" class="node">
<title>DualWriteTurns</title>
<polygon fill="none" stroke="gray" stroke-dasharray="5,2" points="3233.12,-299.5 2908.12,-299.5 2908.12,-239.75 3233.12,-239.75 3233.12,-299.5"/>
<text xml:space="preserve" text-anchor="middle" x="3070.62" y="-282.2" font-family="Times,serif" font-size="14.00" fill="gray">Dual&#45;write turns ✅</text>
<text xml:space="preserve" text-anchor="middle" x="3070.62" y="-264.95" font-family="Times,serif" font-size="14.00" fill="gray">(INSERT game_turns + keep history bytea;</text>
<text xml:space="preserve" text-anchor="middle" x="3070.62" y="-247.7" font-family="Times,serif" font-size="14.00" fill="gray">flag: DUAL_WRITE_TURNS)</text>
</g>
<!-- DualWriteTurns&#45;&gt;ActivateGameTurnsTable -->
<g id="edge14" class="edge">
<title>DualWriteTurns&#45;&gt;ActivateGameTurnsTable</title>
<path fill="none" stroke="black" d="M3154.63,-239.35C3191.51,-226.49 3234.32,-211.57 3269.46,-199.33"/>
<polygon fill="black" stroke="black" points="3270.39,-202.71 3278.68,-196.12 3268.08,-196.1 3270.39,-202.71"/>
</g>
<!-- SplitDBWriters -->
<g id="node12" class="node">
<title>SplitDBWriters</title>
<polygon fill="none" stroke="gray" stroke-dasharray="5,2" points="2454.5,-491 2146.75,-491 2146.75,-431.25 2454.5,-431.25 2454.5,-491"/>
<text xml:space="preserve" text-anchor="middle" x="2300.62" y="-473.7" font-family="Times,serif" font-size="14.00" fill="gray">Split DB writers ✅</text>
<text xml:space="preserve" text-anchor="middle" x="2300.62" y="-456.45" font-family="Times,serif" font-size="14.00" fill="gray">(AppendTurn, UpdateTimers,</text>
<text xml:space="preserve" text-anchor="middle" x="2300.62" y="-439.2" font-family="Times,serif" font-size="14.00" fill="gray">AppendMetaEvent, SetReady, EndGame)</text>
</g>
<!-- SplitDBWriters&#45;&gt;SQLCOtherFuncs -->
<g id="edge11" class="edge">
<title>SplitDBWriters&#45;&gt;SQLCOtherFuncs</title>
<path fill="none" stroke="black" d="M2251.81,-430.98C2229.53,-417.67 2203.51,-402.14 2182.57,-389.63"/>
<polygon fill="black" stroke="black" points="2184.42,-386.66 2174.04,-384.54 2180.83,-392.67 2184.42,-386.66"/>
</g>
<!-- BuildLiveStateFromTurns -->
<g id="node13" class="node">
<title>BuildLiveStateFromTurns</title>
<polygon fill="none" stroke="gray" stroke-dasharray="5,2" points="2889.88,-299.5 2605.38,-299.5 2605.38,-239.75 2889.88,-239.75 2889.88,-299.5"/>
<text xml:space="preserve" text-anchor="middle" x="2747.62" y="-282.2" font-family="Times,serif" font-size="14.00" fill="gray">Build live game state from turns ✅</text>
<text xml:space="preserve" text-anchor="middle" x="2747.62" y="-264.95" font-family="Times,serif" font-size="14.00" fill="gray">(shadow&#45;compare after AppendTurns;</text>
<text xml:space="preserve" text-anchor="middle" x="2747.62" y="-247.7" font-family="Times,serif" font-size="14.00" fill="gray">race&#45;free; flag: SHADOW_TURNS)</text>
</g>
<!-- AssembleHistoryFromTurns -->
<g id="node14" class="node">
<title>AssembleHistoryFromTurns</title>
<polygon fill="none" stroke="gray" stroke-dasharray="5,2" points="1103.62,-203.75 763.62,-203.75 763.62,-144 1103.62,-144 1103.62,-203.75"/>
<text xml:space="preserve" text-anchor="middle" x="933.62" y="-186.45" font-family="Times,serif" font-size="14.00" fill="gray">Assemble GameHistory from game_turns ✅</text>
<text xml:space="preserve" text-anchor="middle" x="933.62" y="-169.2" font-family="Times,serif" font-size="14.00" fill="gray">(assembleHistory() in pkg/stores/game/s3.go;</text>
<text xml:space="preserve" text-anchor="middle" x="933.62" y="-151.95" font-family="Times,serif" font-size="14.00" fill="gray">verify via proto.Equal against history bytea)</text>
</g>
<!-- S3UploadPath -->
<g id="node15" class="node">
<title>S3UploadPath</title>
<polygon fill="none" stroke="gray" stroke-dasharray="5,2" points="1563.25,-203.75 1122,-203.75 1122,-144 1563.25,-144 1563.25,-203.75"/>
<text xml:space="preserve" text-anchor="middle" x="1342.62" y="-186.45" font-family="Times,serif" font-size="14.00" fill="gray">S3 upload path ✅</text>
<text xml:space="preserve" text-anchor="middle" x="1342.62" y="-169.2" font-family="Times,serif" font-size="14.00" fill="gray">(gzipped protojson, games/&lt;yyyy&gt;/&lt;mm&gt;/&lt;uuid&gt;.json.gz;</text>
<text xml:space="preserve" text-anchor="middle" x="1342.62" y="-151.95" font-family="Times,serif" font-size="14.00" fill="gray">creation&#45;date partitioning; MinIO in dev)</text>
</g>
<!-- S3UrlColumnOnGames -->
<g id="node16" class="node">
<title>S3UrlColumnOnGames</title>
<polygon fill="none" stroke="gray" stroke-dasharray="5,2" points="746,-195.12 375.25,-195.12 375.25,-152.62 746,-152.62 746,-195.12"/>
<text xml:space="preserve" text-anchor="middle" x="560.62" y="-177.82" font-family="Times,serif" font-size="14.00" fill="gray">Add history_s3_key column to games ✅</text>
<text xml:space="preserve" text-anchor="middle" x="560.62" y="-160.57" font-family="Times,serif" font-size="14.00" fill="gray">(partial index on NULL for pending&#45;archival scan)</text>
</g>
<!-- S3ArchiveOnGameEnd -->
<g id="node17" class="node">
<title>S3ArchiveOnGameEnd</title>
<polygon fill="none" stroke="gray" stroke-dasharray="5,2" points="935.75,-299.5 557.5,-299.5 557.5,-239.75 935.75,-239.75 935.75,-299.5"/>
<text xml:space="preserve" text-anchor="middle" x="746.62" y="-282.2" font-family="Times,serif" font-size="14.00" fill="gray">Archive GameHistory to S3 on game end ✅</text>
<text xml:space="preserve" text-anchor="middle" x="746.62" y="-264.95" font-family="Times,serif" font-size="14.00" fill="gray">(assemble → verify → upload → CommitArchival tx;</text>
<text xml:space="preserve" text-anchor="middle" x="746.62" y="-247.7" font-family="Times,serif" font-size="14.00" fill="gray">cmd/upload&#45;game&#45;archive/ retry script)</text>
</g>
<!-- S3ArchiveOnGameEnd&#45;&gt;AssembleHistoryFromTurns -->
<g id="edge31" class="edge">
<title>S3ArchiveOnGameEnd&#45;&gt;AssembleHistoryFromTurns</title>
<path fill="none" stroke="black" d="M805.02,-239.35C824.1,-229.79 845.45,-219.08 865.19,-209.18"/>
<polygon fill="black" stroke="black" points="866.62,-212.38 873.99,-204.77 863.49,-206.12 866.62,-212.38"/>
</g>
<!-- S3ArchiveOnGameEnd&#45;&gt;S3UploadPath -->
<g id="edge32" class="edge">
<title>S3ArchiveOnGameEnd&#45;&gt;S3UploadPath</title>
<path fill="none" stroke="black" d="M933.16,-239.28C1000.44,-228.7 1076.58,-216.72 1144.79,-205.99"/>
<polygon fill="black" stroke="black" points="1145.27,-209.46 1154.61,-204.45 1144.19,-202.55 1145.27,-209.46"/>
</g>
<!-- S3ArchiveOnGameEnd&#45;&gt;S3UrlColumnOnGames -->
<g id="edge33" class="edge">
<title>S3ArchiveOnGameEnd&#45;&gt;S3UrlColumnOnGames</title>
<path fill="none" stroke="black" d="M688.54,-239.35C664.03,-226.99 635.73,-212.73 611.99,-200.76"/>
<polygon fill="black" stroke="black" points="613.63,-197.67 603.13,-196.3 610.48,-203.93 613.63,-197.67"/>
</g>
<!-- ByteaBackfill -->
<g id="node18" class="node">
<title>ByteaBackfill</title>
<polygon fill="none" stroke="gray" stroke-dasharray="5,2" points="357.25,-203.75 0,-203.75 0,-144 357.25,-144 357.25,-203.75"/>
<text xml:space="preserve" text-anchor="middle" x="178.62" y="-186.45" font-family="Times,serif" font-size="14.00" fill="gray">Bytea&#45;fed S3 backfill ✅</text>
<text xml:space="preserve" text-anchor="middle" x="178.62" y="-169.2" font-family="Times,serif" font-size="14.00" fill="gray">(cmd/bytea&#45;backfill/; 11.3M historical games;</text>
<text xml:space="preserve" text-anchor="middle" x="178.62" y="-151.95" font-family="Times,serif" font-size="14.00" fill="gray">parallel workers, keyset pagination, resumable)</text>
</g>
<!-- S3ArchiveOnGameEnd&#45;&gt;ByteaBackfill -->
<g id="edge34" class="edge">
<title>S3ArchiveOnGameEnd&#45;&gt;ByteaBackfill</title>
<path fill="none" stroke="black" d="M568.85,-239.28C504.87,-228.72 432.48,-216.77 367.57,-206.06"/>
<polygon fill="black" stroke="black" points="368.31,-202.64 357.88,-204.46 367.17,-209.54 368.31,-202.64"/>
</g>
<!-- FixGameDocumentBugs -->
<g id="node19" class="node">
<title>FixGameDocumentBugs</title>
<polygon fill="#f0f0f0" stroke="lightgray" stroke-dasharray="5,2" points="2771,-781.3 2490.25,-781.3 2490.25,-738.8 2771,-738.8 2771,-781.3"/>
<text xml:space="preserve" text-anchor="middle" x="2630.62" y="-764" font-family="Times,serif" font-size="14.00" fill="lightgray">Fix and test GameDocument bugs ❌</text>
<text xml:space="preserve" text-anchor="middle" x="2630.62" y="-746.75" font-family="Times,serif" font-size="14.00" fill="lightgray">(GameDocument being retired)</text>
</g>
<!-- AddPastGamesTable -->
<g id="node20" class="node">
<title>AddPastGamesTable</title>
<polygon fill="#f0f0f0" stroke="lightgray" stroke-dasharray="5,2" points="3048.12,-781.3 2789.12,-781.3 2789.12,-738.8 3048.12,-738.8 3048.12,-781.3"/>
<text xml:space="preserve" text-anchor="middle" x="2918.62" y="-764" font-family="Times,serif" font-size="14.00" fill="lightgray">Add PastGames table ❌</text>
<text xml:space="preserve" text-anchor="middle" x="2918.62" y="-746.75" font-family="Times,serif" font-size="14.00" fill="lightgray">(superseded by S3 + game_turns)</text>
</g>
<!-- UsePastGamesTable -->
<g id="node21" class="node">
<title>UsePastGamesTable</title>
<polygon fill="#f0f0f0" stroke="lightgray" stroke-dasharray="5,2" points="3358.62,-778.05 3066.62,-778.05 3066.62,-742.05 3358.62,-742.05 3358.62,-778.05"/>
<text xml:space="preserve" text-anchor="middle" x="3212.62" y="-755.38" font-family="Times,serif" font-size="14.00" fill="lightgray">Transparently use PastGames table ❌</text>
</g>
<!-- MigrateToPastGamesTable -->
<g id="node22" class="node">
<title>MigrateToPastGamesTable</title>
<polygon fill="#f0f0f0" stroke="lightgray" stroke-dasharray="5,2" points="3614.62,-778.05 3376.62,-778.05 3376.62,-742.05 3614.62,-742.05 3614.62,-778.05"/>
<text xml:space="preserve" text-anchor="middle" x="3495.62" y="-755.38" font-family="Times,serif" font-size="14.00" fill="lightgray">Migrate to PastGames table ❌</text>
</g>
<!-- RemoveGameCache -->
<g id="node26" class="node">
<title>RemoveGameCache</title>
<polygon fill="none" stroke="black" points="2474.38,-566.25 2312.88,-566.25 2312.88,-530.25 2474.38,-530.25 2474.38,-566.25"/>
<text xml:space="preserve" text-anchor="middle" x="2393.62" y="-543.58" font-family="Times,serif" font-size="14.00">Remove game cache</text>
</g>
<!-- MoreSimultaneousGames&#45;&gt;RemoveGameCache -->
<g id="edge5" class="edge">
<title>MoreSimultaneousGames&#45;&gt;RemoveGameCache</title>
<path fill="none" stroke="black" d="M2431.11,-617.29C2424.62,-605.5 2415.87,-589.63 2408.47,-576.19"/>
<polygon fill="black" stroke="black" points="2411.74,-574.88 2403.85,-567.81 2405.61,-578.26 2411.74,-574.88"/>
</g>
<!-- LessDowntimeBetweenDeploys&#45;&gt;RemoveGameCache -->
<g id="edge6" class="edge">
<title>LessDowntimeBetweenDeploys&#45;&gt;RemoveGameCache</title>
<path fill="none" stroke="black" d="M2137.56,-617.08C2189.55,-603.31 2262.13,-584.08 2316.75,-569.61"/>
<polygon fill="black" stroke="black" points="2317.54,-573.03 2326.31,-567.08 2315.75,-566.26 2317.54,-573.03"/>
</g>
<!-- EfficientTable -->
<g id="node27" class="node">
<title>EfficientTable</title>
<polygon fill="none" stroke="black" points="1819.75,-566.25 1543.5,-566.25 1543.5,-530.25 1819.75,-530.25 1819.75,-566.25"/>
<text xml:space="preserve" text-anchor="middle" x="1681.62" y="-543.58" font-family="Times,serif" font-size="14.00">Make game DB model more efficient</text>
</g>
<!-- MakeDBFaster&#45;&gt;EfficientTable -->
<g id="edge16" class="edge">
<title>MakeDBFaster&#45;&gt;EfficientTable</title>
<path fill="none" stroke="black" d="M1681.62,-617.29C1681.62,-605.96 1681.62,-590.87 1681.62,-577.78"/>
<polygon fill="black" stroke="black" points="1685.13,-578 1681.63,-568 1678.13,-578 1685.13,-578"/>
</g>
<!-- ClearLargeFields -->
<g id="node32" class="node">
<title>ClearLargeFields</title>
<polygon fill="none" stroke="black" points="1274.5,-569.5 1026.75,-569.5 1026.75,-527 1274.5,-527 1274.5,-569.5"/>
<text xml:space="preserve" text-anchor="middle" x="1150.62" y="-552.2" font-family="Times,serif" font-size="14.00">Clear large fields in games table</text>
<text xml:space="preserve" text-anchor="middle" x="1150.62" y="-534.95" font-family="Times,serif" font-size="14.00">(history, stats, quickdata)</text>
</g>
<!-- MakeDBFaster&#45;&gt;ClearLargeFields -->
<g id="edge17" class="edge">
<title>MakeDBFaster&#45;&gt;ClearLargeFields</title>
<path fill="none" stroke="black" d="M1572.89,-617.08C1489.81,-603.74 1374.84,-585.27 1285.84,-570.97"/>
<polygon fill="black" stroke="black" points="1286.49,-567.53 1276.06,-569.4 1285.38,-574.44 1286.49,-567.53"/>
</g>
<!-- RemoveGameCache&#45;&gt;SplitDBWriters -->
<g id="edge8" class="edge">
<title>RemoveGameCache&#45;&gt;SplitDBWriters</title>
<path fill="none" stroke="black" d="M2374.81,-530.02C2365.07,-521.11 2352.78,-509.87 2341.03,-499.11"/>
<polygon fill="black" stroke="black" points="2343.46,-496.59 2333.72,-492.42 2338.74,-501.75 2343.46,-496.59"/>
</g>
<!-- AdvisoryLockWriters -->
<g id="node28" class="node">
<title>AdvisoryLockWriters</title>
<polygon fill="none" stroke="black" points="2735,-482.38 2472.25,-482.38 2472.25,-439.88 2735,-439.88 2735,-482.38"/>
<text xml:space="preserve" text-anchor="middle" x="2603.62" y="-465.07" font-family="Times,serif" font-size="14.00">Replace in&#45;process locks with</text>
<text xml:space="preserve" text-anchor="middle" x="2603.62" y="-447.82" font-family="Times,serif" font-size="14.00">pg_advisory_xact_lock per write tx</text>
</g>
<!-- RemoveGameCache&#45;&gt;AdvisoryLockWriters -->
<g id="edge7" class="edge">
<title>RemoveGameCache&#45;&gt;AdvisoryLockWriters</title>
<path fill="none" stroke="black" d="M2436.63,-529.82C2467.08,-517.48 2508.36,-500.74 2542.27,-487"/>
<polygon fill="black" stroke="black" points="2543.17,-490.41 2551.13,-483.41 2540.55,-483.92 2543.17,-490.41"/>
</g>
<!-- CheapGameLoad -->
<g id="node29" class="node">
<title>CheapGameLoad</title>
<polygon fill="none" stroke="black" points="2996.25,-482.38 2753,-482.38 2753,-439.88 2996.25,-439.88 2996.25,-482.38"/>
<text xml:space="preserve" text-anchor="middle" x="2874.62" y="-465.07" font-family="Times,serif" font-size="14.00">Cheap per&#45;move game load</text>
<text xml:space="preserve" text-anchor="middle" x="2874.62" y="-447.82" font-family="Times,serif" font-size="14.00">(no full&#45;history replay per node)</text>
</g>
<!-- RemoveGameCache&#45;&gt;CheapGameLoad -->
<g id="edge9" class="edge">
<title>RemoveGameCache&#45;&gt;CheapGameLoad</title>
<path fill="none" stroke="black" d="M2474.84,-535.55C2545.92,-524.99 2651.88,-508.47 2743.62,-491 2753.1,-489.2 2762.94,-487.22 2772.77,-485.17"/>
<polygon fill="black" stroke="black" points="2773.31,-488.64 2782.37,-483.15 2771.87,-481.79 2773.31,-488.64"/>
</g>
<!-- GracefulCacheDrain -->
<g id="node31" class="node">
<title>GracefulCacheDrain</title>
<polygon fill="none" stroke="black" points="2128.88,-482.38 1868.38,-482.38 1868.38,-439.88 2128.88,-439.88 2128.88,-482.38"/>
<text xml:space="preserve" text-anchor="middle" x="1998.62" y="-465.07" font-family="Times,serif" font-size="14.00">Graceful cache drain on SIGTERM</text>
<text xml:space="preserve" text-anchor="middle" x="1998.62" y="-447.82" font-family="Times,serif" font-size="14.00">(refuse new moves; let txs drain)</text>
</g>
<!-- RemoveGameCache&#45;&gt;GracefulCacheDrain -->
<g id="edge10" class="edge">
<title>RemoveGameCache&#45;&gt;GracefulCacheDrain</title>
<path fill="none" stroke="black" d="M2312.74,-529.82C2253,-516.94 2171.07,-499.29 2105.87,-485.24"/>
<polygon fill="black" stroke="black" points="2106.72,-481.84 2096.21,-483.16 2105.25,-488.68 2106.72,-481.84"/>
</g>
<!-- EfficientTable&#45;&gt;SQLCDBStore -->
<g id="edge19" class="edge">
<title>EfficientTable&#45;&gt;SQLCDBStore</title>
<path fill="none" stroke="black" d="M1691.14,-530.02C1697.53,-518.45 1706.09,-502.94 1713.42,-489.67"/>
<polygon fill="black" stroke="black" points="1716.47,-491.39 1718.24,-480.94 1710.34,-488.01 1716.47,-491.39"/>
</g>
<!-- EfficientTable&#45;&gt;ConsolidateRequestColumns -->
<g id="edge18" class="edge">
<title>EfficientTable&#45;&gt;ConsolidateRequestColumns</title>
<path fill="none" stroke="black" d="M1637.6,-529.82C1603.83,-516.45 1557.04,-497.92 1520.95,-483.63"/>
<polygon fill="black" stroke="black" points="1522.59,-480.52 1512,-480.09 1520.01,-487.03 1522.59,-480.52"/>
</g>
<!-- ReadPathFromTurns -->
<g id="node30" class="node">
<title>ReadPathFromTurns</title>
<polygon fill="none" stroke="black" points="2997.38,-386.62 2751.88,-386.62 2751.88,-344.12 2997.38,-344.12 2997.38,-386.62"/>
<text xml:space="preserve" text-anchor="middle" x="2874.62" y="-369.32" font-family="Times,serif" font-size="14.00">Switch read path to game_turns</text>
<text xml:space="preserve" text-anchor="middle" x="2874.62" y="-352.07" font-family="Times,serif" font-size="14.00">(history bytea no longer read)</text>
</g>
<!-- CheapGameLoad&#45;&gt;ReadPathFromTurns -->
<g id="edge12" class="edge">
<title>CheapGameLoad&#45;&gt;ReadPathFromTurns</title>
<path fill="none" stroke="black" d="M2874.62,-439.78C2874.62,-427.7 2874.62,-412.12 2874.62,-398.42"/>
<polygon fill="black" stroke="black" points="2878.13,-398.51 2874.63,-388.51 2871.13,-398.51 2878.13,-398.51"/>
</g>
<!-- ReadPathFromTurns&#45;&gt;DualWriteTurns -->
<g id="edge13" class="edge">
<title>ReadPathFromTurns&#45;&gt;DualWriteTurns</title>
<path fill="none" stroke="black" d="M2917.64,-343.8C2941.52,-332.38 2971.84,-317.87 2999.18,-304.8"/>
<polygon fill="black" stroke="black" points="3000.62,-307.99 3008.13,-300.52 2997.6,-301.68 3000.62,-307.99"/>
</g>
<!-- ReadPathFromTurns&#45;&gt;BuildLiveStateFromTurns -->
<g id="edge15" class="edge">
<title>ReadPathFromTurns&#45;&gt;BuildLiveStateFromTurns</title>
<path fill="none" stroke="black" d="M2846.75,-343.8C2831.83,-332.79 2813.03,-318.9 2795.82,-306.2"/>
<polygon fill="black" stroke="black" points="2798.33,-303.71 2788.21,-300.58 2794.18,-309.34 2798.33,-303.71"/>
</g>
<!-- MigrateStatsToClickhouse -->
<g id="node33" class="node">
<title>MigrateStatsToClickhouse</title>
<polygon fill="none" stroke="black" points="1325.88,-491 975.38,-491 975.38,-431.25 1325.88,-431.25 1325.88,-491"/>
<text xml:space="preserve" text-anchor="middle" x="1150.62" y="-473.7" font-family="Times,serif" font-size="14.00">Migrate game stats to ClickHouse</text>
<text xml:space="preserve" text-anchor="middle" x="1150.62" y="-456.45" font-family="Times,serif" font-size="14.00">(replaces liststats + games.stats;</text>
<text xml:space="preserve" text-anchor="middle" x="1150.62" y="-439.2" font-family="Times,serif" font-size="14.00">reads assembled GameHistory at end&#45;of&#45;game)</text>
</g>
<!-- ClearLargeFields&#45;&gt;MigrateStatsToClickhouse -->
<g id="edge23" class="edge">
<title>ClearLargeFields&#45;&gt;MigrateStatsToClickhouse</title>
<path fill="none" stroke="black" d="M1150.62,-526.64C1150.62,-519.34 1150.62,-510.84 1150.62,-502.46"/>
<polygon fill="black" stroke="black" points="1154.13,-502.74 1150.63,-492.74 1147.13,-502.74 1154.13,-502.74"/>
</g>
<!-- OnlyUseNewStorage -->
<g id="node34" class="node">
<title>OnlyUseNewStorage</title>
<polygon fill="none" stroke="black" points="957.38,-482.38 687.88,-482.38 687.88,-439.88 957.38,-439.88 957.38,-482.38"/>
<text xml:space="preserve" text-anchor="middle" x="822.62" y="-465.07" font-family="Times,serif" font-size="14.00">Only use new storage</text>
<text xml:space="preserve" text-anchor="middle" x="822.62" y="-447.82" font-family="Times,serif" font-size="14.00">(game_turns + S3 + game_players)</text>
</g>
<!-- ClearLargeFields&#45;&gt;OnlyUseNewStorage -->
<g id="edge22" class="edge">
<title>ClearLargeFields&#45;&gt;OnlyUseNewStorage</title>
<path fill="none" stroke="black" d="M1070.81,-526.53C1023.3,-514.2 962.85,-498.52 913.51,-485.71"/>
<polygon fill="black" stroke="black" points="914.54,-482.36 903.98,-483.24 912.78,-489.14 914.54,-482.36"/>
</g>
<!-- OnlyUseNewStorage&#45;&gt;S3ArchiveOnGameEnd -->
<g id="edge25" class="edge">
<title>OnlyUseNewStorage&#45;&gt;S3ArchiveOnGameEnd</title>
<path fill="none" stroke="black" d="M822.97,-439.7C822.64,-414.15 819.53,-369.62 803.62,-335.5 799.16,-325.92 792.83,-316.7 786,-308.36"/>
<polygon fill="black" stroke="black" points="788.66,-306.08 779.46,-300.83 783.38,-310.67 788.66,-306.08"/>
</g>
<!-- ReplaceQuickData -->
<g id="node35" class="node">
<title>ReplaceQuickData</title>
<polygon fill="none" stroke="black" points="1339,-386.62 1106.25,-386.62 1106.25,-344.12 1339,-344.12 1339,-386.62"/>
<text xml:space="preserve" text-anchor="middle" x="1222.62" y="-369.32" font-family="Times,serif" font-size="14.00">Replace QuickData with JOINs</text>
<text xml:space="preserve" text-anchor="middle" x="1222.62" y="-352.07" font-family="Times,serif" font-size="14.00">(game_players + users)</text>
</g>
<!-- OnlyUseNewStorage&#45;&gt;ReplaceQuickData -->
<g id="edge24" class="edge">
<title>OnlyUseNewStorage&#45;&gt;ReplaceQuickData</title>
<path fill="none" stroke="black" d="M910.9,-439.44C973.65,-424.73 1057.99,-404.96 1123.13,-389.7"/>
<polygon fill="black" stroke="black" points="1123.82,-393.13 1132.75,-387.44 1122.22,-386.31 1123.82,-393.13"/>
</g>
<!-- S3LoadPath -->
<g id="node36" class="node">
<title>S3LoadPath</title>
<polygon fill="none" stroke="black" points="794.62,-386.62 544.62,-386.62 544.62,-344.12 794.62,-344.12 794.62,-386.62"/>
<text xml:space="preserve" text-anchor="middle" x="669.62" y="-369.32" font-family="Times,serif" font-size="14.00">Load GameHistory from S3</text>
<text xml:space="preserve" text-anchor="middle" x="669.62" y="-352.07" font-family="Times,serif" font-size="14.00">(fallback to legacy history bytea)</text>
</g>
<!-- OnlyUseNewStorage&#45;&gt;S3LoadPath -->
<g id="edge26" class="edge">
<title>OnlyUseNewStorage&#45;&gt;S3LoadPath</title>
<path fill="none" stroke="black" d="M789.05,-439.55C766.71,-425.86 737.14,-407.74 713.02,-392.96"/>
<polygon fill="black" stroke="black" points="715.03,-390.09 704.68,-387.85 711.38,-396.06 715.03,-390.09"/>
</g>
<!-- ReplaceQuickData&#45;&gt;MigrateToMany2ManyTable -->
<g id="edge27" class="edge">
<title>ReplaceQuickData&#45;&gt;MigrateToMany2ManyTable</title>
<path fill="none" stroke="black" d="M1278.02,-343.69C1318.97,-328.39 1374.58,-307.62 1416.04,-292.13"/>
<polygon fill="black" stroke="black" points="1417.24,-295.42 1425.38,-288.64 1414.79,-288.86 1417.24,-295.42"/>
</g>
<!-- S3LoadPath&#45;&gt;S3ArchiveOnGameEnd -->
<g id="edge35" class="edge">
<title>S3LoadPath&#45;&gt;S3ArchiveOnGameEnd</title>
<path fill="none" stroke="black" d="M686.33,-344.03C694.87,-333.63 705.55,-320.63 715.54,-308.48"/>
<polygon fill="black" stroke="black" points="718.04,-310.94 721.68,-300.99 712.63,-306.5 718.04,-310.94"/>
</g>
<!-- S3LoadPath&#45;&gt;ByteaBackfill -->
<g id="edge36" class="edge">
<title>S3LoadPath&#45;&gt;ByteaBackfill</title>
<path fill="none" stroke="black" d="M616.14,-343.73C531.65,-311.12 366.46,-247.37 265,-208.21"/>
<polygon fill="black" stroke="black" points="266.47,-205.03 255.88,-204.69 263.95,-211.56 266.47,-205.03"/>
</g>
<!-- MoveGameHistoryProto -->
<g id="node38" class="node">
<title>MoveGameHistoryProto</title>
<polygon fill="none" stroke="black" points="3688.62,-569.5 3402.62,-569.5 3402.62,-527 3688.62,-527 3688.62,-569.5"/>
<text xml:space="preserve" text-anchor="middle" x="3545.62" y="-552.2" font-family="Times,serif" font-size="14.00">Move GameHistory proto into liwords</text>
<text xml:space="preserve" text-anchor="middle" x="3545.62" y="-534.95" font-family="Times,serif" font-size="14.00">(api/proto/ipc/game_history.proto)</text>
</g>
<!-- DeprecateGameDocument&#45;&gt;MoveGameHistoryProto -->
<g id="edge37" class="edge">
<title>DeprecateGameDocument&#45;&gt;MoveGameHistoryProto</title>
<path fill="none" stroke="black" d="M3265.04,-610.62C3319.74,-598.66 3385.65,-584.24 3439.85,-572.39"/>
<polygon fill="black" stroke="black" points="3440.37,-575.85 3449.39,-570.3 3438.88,-569.02 3440.37,-575.85"/>
</g>
<!-- PortMacondoReferee -->
<g id="node40" class="node">
<title>PortMacondoReferee</title>
<polygon fill="none" stroke="black" points="3406.5,-395.25 3146.75,-395.25 3146.75,-335.5 3406.5,-335.5 3406.5,-395.25"/>
<text xml:space="preserve" text-anchor="middle" x="3276.62" y="-377.95" font-family="Times,serif" font-size="14.00">Port macondo referee into liwords</text>
<text xml:space="preserve" text-anchor="middle" x="3276.62" y="-360.7" font-family="Times,serif" font-size="14.00">(pkg/game/: validation, scoring,</text>
<text xml:space="preserve" text-anchor="middle" x="3276.62" y="-343.45" font-family="Times,serif" font-size="14.00">challenge, end&#45;game — NOT AI)</text>
</g>
<!-- DeprecateGameDocument&#45;&gt;PortMacondoReferee -->
<g id="edge38" class="edge">
<title>DeprecateGameDocument&#45;&gt;PortMacondoReferee</title>
<path fill="none" stroke="black" d="M3119.08,-605.69C3071.73,-564.77 3000.12,-488.53 3043.62,-431.25 3056.19,-414.71 3093.82,-401.27 3135.29,-391"/>
<polygon fill="black" stroke="black" points="3136.09,-394.4 3145,-388.67 3134.46,-387.6 3136.09,-394.4"/>
</g>
<!-- MigrateNativeGamesToPkgGame -->
<g id="node42" class="node">
<title>MigrateNativeGamesToPkgGame</title>
<polygon fill="none" stroke="black" points="3444.5,-482.38 3052.75,-482.38 3052.75,-439.88 3444.5,-439.88 3444.5,-482.38"/>
<text xml:space="preserve" text-anchor="middle" x="3248.62" y="-465.07" font-family="Times,serif" font-size="14.00">Migrate native game path to pkg/game</text>
<text xml:space="preserve" text-anchor="middle" x="3248.62" y="-447.82" font-family="Times,serif" font-size="14.00">(entity.Game stops embedding macondogame.Game)</text>
</g>
<!-- DeprecateGameDocument&#45;&gt;MigrateNativeGamesToPkgGame -->
<g id="edge39" class="edge">
<title>DeprecateGameDocument&#45;&gt;MigrateNativeGamesToPkgGame</title>
<path fill="none" stroke="black" d="M3124.64,-605.74C3104.6,-583.51 3085.08,-552.38 3101.62,-527 3112.87,-509.75 3129.85,-497.05 3148.33,-487.71"/>
<polygon fill="black" stroke="black" points="3149.77,-490.91 3157.36,-483.51 3146.81,-484.56 3149.77,-490.91"/>
</g>
<!-- MigrateAnnotatorToPkgGame -->
<g id="node43" class="node">
<title>MigrateAnnotatorToPkgGame</title>
<polygon fill="none" stroke="black" points="3808.25,-482.38 3463,-482.38 3463,-439.88 3808.25,-439.88 3808.25,-482.38"/>
<text xml:space="preserve" text-anchor="middle" x="3635.62" y="-465.07" font-family="Times,serif" font-size="14.00">Migrate annotator to pkg/game + game_turns</text>
<text xml:space="preserve" text-anchor="middle" x="3635.62" y="-447.82" font-family="Times,serif" font-size="14.00">(pkg/omgwords/* rewritten)</text>
</g>
<!-- DeprecateGameDocument&#45;&gt;MigrateAnnotatorToPkgGame -->
<g id="edge40" class="edge">
<title>DeprecateGameDocument&#45;&gt;MigrateAnnotatorToPkgGame</title>
<path fill="none" stroke="black" d="M3264.39,-610.53C3295.39,-600.74 3328.18,-587.4 3355.62,-569.5 3376.85,-555.66 3372.04,-540.28 3393.62,-527 3423.54,-508.59 3458.67,-495.34 3492.74,-485.83"/>
<polygon fill="black" stroke="black" points="3493.55,-489.23 3502.29,-483.26 3491.73,-482.47 3493.55,-489.23"/>
</g>
<!-- RemoveMacondoRuntimeDep -->
<g id="node46" class="node">
<title>RemoveMacondoRuntimeDep</title>
<polygon fill="none" stroke="black" points="3346.88,-569.5 3110.38,-569.5 3110.38,-527 3346.88,-527 3346.88,-569.5"/>
<text xml:space="preserve" text-anchor="middle" x="3228.62" y="-552.2" font-family="Times,serif" font-size="14.00">Remove macondo from go.mod</text>
<text xml:space="preserve" text-anchor="middle" x="3228.62" y="-534.95" font-family="Times,serif" font-size="14.00">(puzzles/memento deferred)</text>
</g>
<!-- DeprecateGameDocument&#45;&gt;RemoveMacondoRuntimeDep -->
<g id="edge41" class="edge">
<title>DeprecateGameDocument&#45;&gt;RemoveMacondoRuntimeDep</title>
<path fill="none" stroke="black" d="M3180.34,-605.67C3187.91,-596.83 3196.24,-587.1 3203.81,-578.24"/>
<polygon fill="black" stroke="black" points="3206.25,-580.77 3210.1,-570.9 3200.94,-576.22 3206.25,-580.77"/>
</g>
<!-- UpdateGoImports -->
<g id="node39" class="node">
<title>UpdateGoImports</title>
<polygon fill="none" stroke="black" points="3644,-656.8 3447.25,-656.8 3447.25,-614.3 3644,-614.3 3644,-656.8"/>
<text xml:space="preserve" text-anchor="middle" x="3545.62" y="-639.5" font-family="Times,serif" font-size="14.00">Update all Go imports to</text>
<text xml:space="preserve" text-anchor="middle" x="3545.62" y="-622.25" font-family="Times,serif" font-size="14.00">use liwords GameHistory</text>
</g>
<!-- UpdateGoImports&#45;&gt;MoveGameHistoryProto -->
<g id="edge42" class="edge">
<title>UpdateGoImports&#45;&gt;MoveGameHistoryProto</title>
<path fill="none" stroke="black" d="M3545.62,-613.9C3545.62,-604.05 3545.62,-592.05 3545.62,-581.07"/>
<polygon fill="black" stroke="black" points="3549.13,-581.22 3545.63,-571.22 3542.13,-581.22 3549.13,-581.22"/>
</g>
<!-- AuditRefereeGap -->
<g id="node41" class="node">
<title>AuditRefereeGap</title>
<polygon fill="none" stroke="black" points="3523.88,-299.5 3251.38,-299.5 3251.38,-239.75 3523.88,-239.75 3523.88,-299.5"/>
<text xml:space="preserve" text-anchor="middle" x="3387.62" y="-282.2" font-family="Times,serif" font-size="14.00">Audit referee gap:</text>
<text xml:space="preserve" text-anchor="middle" x="3387.62" y="-264.95" font-family="Times,serif" font-size="14.00">list macondo/game methods needed</text>
<text xml:space="preserve" text-anchor="middle" x="3387.62" y="-247.7" font-family="Times,serif" font-size="14.00">(timebox this)</text>
</g>
<!-- PortMacondoReferee&#45;&gt;AuditRefereeGap -->
<g id="edge43" class="edge">
<title>PortMacondoReferee&#45;&gt;AuditRefereeGap</title>
<path fill="none" stroke="black" d="M3311.14,-335.23C3321.68,-326.32 3333.41,-316.41 3344.46,-307.08"/>
<polygon fill="black" stroke="black" points="3346.6,-309.86 3351.98,-300.73 3342.08,-304.51 3346.6,-309.86"/>
</g>
<!-- MigrateNativeGamesToPkgGame&#45;&gt;PortMacondoReferee -->
<g id="edge44" class="edge">
<title>MigrateNativeGamesToPkgGame&#45;&gt;PortMacondoReferee</title>
<path fill="none" stroke="black" d="M3254.7,-439.78C3257.63,-429.99 3261.24,-417.89 3264.68,-406.36"/>
<polygon fill="black" stroke="black" points="3267.96,-407.61 3267.47,-397.02 3261.26,-405.6 3267.96,-407.61"/>
</g>
<!-- MigrateAnnotatorToPkgGame&#45;&gt;ActivateGameTurnsTable -->
<g id="edge46" class="edge">
<title>MigrateAnnotatorToPkgGame&#45;&gt;ActivateGameTurnsTable</title>
<path fill="none" stroke="black" d="M3631.69,-439.56C3622.36,-396.31 3594.84,-295.31 3532.62,-239.75 3512.46,-221.75 3487.13,-208.71 3461.51,-199.28"/>
<polygon fill="black" stroke="black" points="3462.94,-196.07 3452.34,-196.08 3460.63,-202.68 3462.94,-196.07"/>
</g>
<!-- MigrateAnnotatorToPkgGame&#45;&gt;PortMacondoReferee -->
<g id="edge45" class="edge">
<title>MigrateAnnotatorToPkgGame&#45;&gt;PortMacondoReferee</title>
<path fill="none" stroke="black" d="M3556.4,-439.44C3510.52,-427.45 3451.77,-412.11 3399.96,-398.58"/>
<polygon fill="black" stroke="black" points="3401.04,-395.25 3390.48,-396.11 3399.27,-402.02 3401.04,-395.25"/>
</g>
<!-- DropGameDocumentsTable -->
<g id="node44" class="node">
<title>DropGameDocumentsTable</title>
<polygon fill="none" stroke="black" points="3926.62,-566.25 3706.62,-566.25 3706.62,-530.25 3926.62,-530.25 3926.62,-566.25"/>
<text xml:space="preserve" text-anchor="middle" x="3816.62" y="-543.58" font-family="Times,serif" font-size="14.00">Drop game_documents table</text>
</g>
<!-- DropGameDocumentsTable&#45;&gt;MigrateAnnotatorToPkgGame -->
<g id="edge47" class="edge">
<title>DropGameDocumentsTable&#45;&gt;MigrateAnnotatorToPkgGame</title>
<path fill="none" stroke="black" d="M3779.56,-529.82C3753.77,-517.69 3718.96,-501.32 3690.03,-487.71"/>
<polygon fill="black" stroke="black" points="3691.57,-484.57 3681.03,-483.48 3688.59,-490.9 3691.57,-484.57"/>
</g>
<!-- RetireCwgame -->
<g id="node45" class="node">
<title>RetireCwgame</title>
<polygon fill="none" stroke="black" points="4240.5,-569.5 3944.75,-569.5 3944.75,-527 4240.5,-527 4240.5,-569.5"/>
<text xml:space="preserve" text-anchor="middle" x="4092.62" y="-552.2" font-family="Times,serif" font-size="14.00">Retire pkg/cwgame/*</text>
<text xml:space="preserve" text-anchor="middle" x="4092.62" y="-534.95" font-family="Times,serif" font-size="14.00">(move GCG/CGP to pkg/game/formats/)</text>
</g>
<!-- RetireCwgame&#45;&gt;MigrateAnnotatorToPkgGame -->
<g id="edge48" class="edge">
<title>RetireCwgame&#45;&gt;MigrateAnnotatorToPkgGame</title>
<path fill="none" stroke="black" d="M3981.41,-526.53C3913.83,-513.95 3827.46,-497.86 3757.94,-484.91"/>
<polygon fill="black" stroke="black" points="3758.9,-481.53 3748.43,-483.14 3757.62,-488.41 3758.9,-481.53"/>
</g>
<!-- RemoveMacondoRuntimeDep&#45;&gt;MigrateNativeGamesToPkgGame -->
<g id="edge49" class="edge">
<title>RemoveMacondoRuntimeDep&#45;&gt;MigrateNativeGamesToPkgGame</title>
<path fill="none" stroke="black" d="M3233.47,-526.64C3235.78,-516.78 3238.61,-504.76 3241.19,-493.77"/>
<polygon fill="black" stroke="black" points="3244.53,-494.85 3243.41,-484.31 3237.72,-493.24 3244.53,-494.85"/>
</g>
<!-- RemoveMacondoRuntimeDep&#45;&gt;MigrateAnnotatorToPkgGame -->
<g id="edge50" class="edge">
<title>RemoveMacondoRuntimeDep&#45;&gt;MigrateAnnotatorToPkgGame</title>
<path fill="none" stroke="black" d="M3327.67,-526.53C3387.49,-514.02 3463.83,-498.06 3525.54,-485.15"/>
<polygon fill="black" stroke="black" points="3525.94,-488.64 3535.01,-483.17 3524.5,-481.79 3525.94,-488.64"/>
</g>
</g>
</svg>
